<mxfile host="app.diagrams.net" modified="2020-11-20T16:13:05.587Z" agent="5.0 (Windows NT 10.0; Win64; x64) AppleWebKit/537.36 (KHTML, like Gecko) Chrome/87.0.4280.66 Safari/537.36" etag="YyYGSoxQR6NS7ab3ARjT" version="13.10.0" type="github">
  <diagram id="EkDo34qrDGZ_-z-unrCB" name="Page-1">
    <mxGraphModel dx="1574" dy="951" grid="1" gridSize="10" guides="1" tooltips="1" connect="1" arrows="1" fold="1" page="1" pageScale="1" pageWidth="827" pageHeight="1169" math="0" shadow="0">
      <root>
        <mxCell id="0" />
        <mxCell id="1" parent="0" />
        <mxCell id="EJIqz_CYbdoUF1vv5kKt-125" value="" style="rounded=0;whiteSpace=wrap;html=1;fillColor=none;" vertex="1" parent="1">
          <mxGeometry x="720" y="2260" width="660" height="520" as="geometry" />
        </mxCell>
        <mxCell id="EJIqz_CYbdoUF1vv5kKt-72" value="" style="rounded=0;whiteSpace=wrap;html=1;fillColor=none;" vertex="1" parent="1">
          <mxGeometry x="720" y="1560" width="660" height="650" as="geometry" />
        </mxCell>
        <mxCell id="3GYnURnb8D_fZ_eO1M6K-187" value="&lt;font style=&quot;vertical-align: inherit&quot;&gt;&lt;font style=&quot;vertical-align: inherit&quot;&gt;&lt;font style=&quot;vertical-align: inherit&quot;&gt;&lt;font style=&quot;vertical-align: inherit&quot;&gt;&lt;font style=&quot;vertical-align: inherit&quot;&gt;&lt;font style=&quot;vertical-align: inherit&quot;&gt;&lt;font style=&quot;vertical-align: inherit&quot;&gt;&lt;font style=&quot;vertical-align: inherit&quot;&gt;&lt;font style=&quot;vertical-align: inherit&quot;&gt;&lt;font style=&quot;vertical-align: inherit&quot;&gt;&lt;font style=&quot;vertical-align: inherit&quot;&gt;&lt;font style=&quot;vertical-align: inherit&quot;&gt;Sistema ERP&lt;/font&gt;&lt;/font&gt;&lt;/font&gt;&lt;/font&gt;&lt;/font&gt;&lt;/font&gt;&lt;/font&gt;&lt;/font&gt;&lt;/font&gt;&lt;/font&gt;&lt;/font&gt;&lt;/font&gt;" style="shape=umlFrame;whiteSpace=wrap;html=1;width=330;height=20;strokeColor=#000000;fillColor=none;" parent="1" vertex="1">
          <mxGeometry x="1130" y="32.5" width="830" height="710" as="geometry" />
        </mxCell>
        <mxCell id="3GYnURnb8D_fZ_eO1M6K-380" value="" style="rounded=0;whiteSpace=wrap;html=1;fillColor=none;" parent="1" vertex="1">
          <mxGeometry x="1130" y="70" width="680" height="635" as="geometry" />
        </mxCell>
        <mxCell id="9KBp4cft7S8GD2c59fNu-1" value="&lt;font style=&quot;vertical-align: inherit&quot;&gt;&lt;font style=&quot;vertical-align: inherit&quot;&gt;&lt;font style=&quot;vertical-align: inherit&quot;&gt;&lt;font style=&quot;vertical-align: inherit&quot;&gt;&lt;font style=&quot;vertical-align: inherit&quot;&gt;&lt;font style=&quot;vertical-align: inherit&quot;&gt;&lt;font style=&quot;vertical-align: inherit&quot;&gt;&lt;font style=&quot;vertical-align: inherit&quot;&gt;&lt;font style=&quot;vertical-align: inherit&quot;&gt;&lt;font style=&quot;vertical-align: inherit&quot;&gt;&lt;font style=&quot;vertical-align: inherit&quot;&gt;&lt;font style=&quot;vertical-align: inherit&quot;&gt;Site loja de Supermercado&lt;/font&gt;&lt;/font&gt;&lt;/font&gt;&lt;/font&gt;&lt;/font&gt;&lt;/font&gt;&lt;/font&gt;&lt;/font&gt;&lt;/font&gt;&lt;/font&gt;&lt;/font&gt;&lt;/font&gt;" style="shape=umlFrame;whiteSpace=wrap;html=1;width=330;height=20;strokeColor=#000000;" parent="1" vertex="1">
          <mxGeometry x="24" y="70" width="1066" height="660" as="geometry" />
        </mxCell>
        <mxCell id="3GYnURnb8D_fZ_eO1M6K-190" style="edgeStyle=none;rounded=0;orthogonalLoop=1;jettySize=auto;html=1;entryX=0;entryY=0.495;entryDx=0;entryDy=0;entryPerimeter=0;dashed=1;startArrow=none;startFill=0;endArrow=open;endFill=0;" parent="1" source="9KBp4cft7S8GD2c59fNu-1" target="3GYnURnb8D_fZ_eO1M6K-187" edge="1">
          <mxGeometry relative="1" as="geometry" />
        </mxCell>
        <mxCell id="3GYnURnb8D_fZ_eO1M6K-191" value="include" style="edgeLabel;html=1;align=center;verticalAlign=middle;resizable=0;points=[];" parent="3GYnURnb8D_fZ_eO1M6K-190" vertex="1" connectable="0">
          <mxGeometry x="-0.3426" relative="1" as="geometry">
            <mxPoint as="offset" />
          </mxGeometry>
        </mxCell>
        <mxCell id="9KBp4cft7S8GD2c59fNu-2" value="" style="rounded=0;whiteSpace=wrap;html=1;fillColor=none;" parent="1" vertex="1">
          <mxGeometry x="140" y="130" width="930" height="580" as="geometry" />
        </mxCell>
        <mxCell id="9KBp4cft7S8GD2c59fNu-3" style="edgeStyle=none;rounded=0;orthogonalLoop=1;jettySize=auto;html=1;exitX=0;exitY=0;exitDx=0;exitDy=0;endArrow=none;endFill=0;" parent="1" edge="1">
          <mxGeometry relative="1" as="geometry">
            <mxPoint x="564.6399999999999" y="484" as="sourcePoint" />
            <mxPoint x="564.6399999999999" y="484" as="targetPoint" />
          </mxGeometry>
        </mxCell>
        <mxCell id="3GYnURnb8D_fZ_eO1M6K-130" style="edgeStyle=none;rounded=0;orthogonalLoop=1;jettySize=auto;html=1;endArrow=none;endFill=0;" parent="1" source="9KBp4cft7S8GD2c59fNu-12" target="3GYnURnb8D_fZ_eO1M6K-4" edge="1">
          <mxGeometry relative="1" as="geometry" />
        </mxCell>
        <mxCell id="9KBp4cft7S8GD2c59fNu-12" value="&lt;font style=&quot;vertical-align: inherit&quot;&gt;&lt;font style=&quot;vertical-align: inherit&quot;&gt;Cliente&lt;/font&gt;&lt;/font&gt;" style="shape=umlActor;verticalLabelPosition=bottom;verticalAlign=top;html=1;" parent="1" vertex="1">
          <mxGeometry x="60" y="150" width="30" height="60" as="geometry" />
        </mxCell>
        <mxCell id="3GYnURnb8D_fZ_eO1M6K-127" style="rounded=0;orthogonalLoop=1;jettySize=auto;html=1;dashed=1;endArrow=none;endFill=0;" parent="1" source="9KBp4cft7S8GD2c59fNu-13" target="3GYnURnb8D_fZ_eO1M6K-4" edge="1">
          <mxGeometry relative="1" as="geometry" />
        </mxCell>
        <mxCell id="9KBp4cft7S8GD2c59fNu-13" value="&lt;font style=&quot;vertical-align: inherit&quot;&gt;&lt;font style=&quot;vertical-align: inherit&quot;&gt;&lt;font style=&quot;vertical-align: inherit&quot;&gt;&lt;font style=&quot;vertical-align: inherit&quot;&gt;&lt;font style=&quot;vertical-align: inherit&quot;&gt;&lt;font style=&quot;vertical-align: inherit&quot;&gt;Acessar Menu&lt;/font&gt;&lt;/font&gt;&lt;/font&gt;&lt;/font&gt;&lt;/font&gt;&lt;/font&gt;" style="ellipse;whiteSpace=wrap;html=1;" parent="1" vertex="1">
          <mxGeometry x="304" y="150" width="110" height="50" as="geometry" />
        </mxCell>
        <mxCell id="3GYnURnb8D_fZ_eO1M6K-152" style="edgeStyle=none;rounded=0;orthogonalLoop=1;jettySize=auto;html=1;dashed=1;startArrow=none;startFill=0;endArrow=open;endFill=0;" parent="1" source="9KBp4cft7S8GD2c59fNu-14" target="3GYnURnb8D_fZ_eO1M6K-4" edge="1">
          <mxGeometry relative="1" as="geometry" />
        </mxCell>
        <mxCell id="9KBp4cft7S8GD2c59fNu-14" value="Visualizar Item do Carrossel" style="ellipse;whiteSpace=wrap;html=1;" parent="1" vertex="1">
          <mxGeometry x="260" y="218.75" width="110" height="50" as="geometry" />
        </mxCell>
        <mxCell id="9KBp4cft7S8GD2c59fNu-15" value="&lt;font style=&quot;vertical-align: inherit&quot;&gt;&lt;font style=&quot;vertical-align: inherit&quot;&gt;&lt;font style=&quot;vertical-align: inherit&quot;&gt;&lt;font style=&quot;vertical-align: inherit&quot;&gt;&lt;font style=&quot;vertical-align: inherit&quot;&gt;&lt;font style=&quot;vertical-align: inherit&quot;&gt;&lt;font style=&quot;vertical-align: inherit&quot;&gt;&lt;font style=&quot;vertical-align: inherit&quot;&gt;Visualizar itens do carrinho&lt;/font&gt;&lt;/font&gt;&lt;/font&gt;&lt;/font&gt;&lt;/font&gt;&lt;/font&gt;&lt;/font&gt;&lt;/font&gt;" style="ellipse;whiteSpace=wrap;html=1;" parent="1" vertex="1">
          <mxGeometry x="750" y="190" width="110" height="50" as="geometry" />
        </mxCell>
        <mxCell id="3GYnURnb8D_fZ_eO1M6K-144" style="edgeStyle=none;rounded=0;orthogonalLoop=1;jettySize=auto;html=1;dashed=1;startArrow=none;startFill=0;endArrow=open;endFill=0;" parent="1" source="9KBp4cft7S8GD2c59fNu-16" target="9KBp4cft7S8GD2c59fNu-21" edge="1">
          <mxGeometry relative="1" as="geometry" />
        </mxCell>
        <mxCell id="3GYnURnb8D_fZ_eO1M6K-145" value="include" style="edgeLabel;html=1;align=center;verticalAlign=middle;resizable=0;points=[];" parent="3GYnURnb8D_fZ_eO1M6K-144" vertex="1" connectable="0">
          <mxGeometry x="-0.3796" relative="1" as="geometry">
            <mxPoint as="offset" />
          </mxGeometry>
        </mxCell>
        <mxCell id="3GYnURnb8D_fZ_eO1M6K-155" style="edgeStyle=orthogonalEdgeStyle;rounded=0;orthogonalLoop=1;jettySize=auto;html=1;entryX=0;entryY=1;entryDx=0;entryDy=0;dashed=1;startArrow=none;startFill=0;endArrow=open;endFill=0;exitX=0;exitY=0.5;exitDx=0;exitDy=0;" parent="1" source="9KBp4cft7S8GD2c59fNu-16" target="3GYnURnb8D_fZ_eO1M6K-4" edge="1">
          <mxGeometry relative="1" as="geometry">
            <Array as="points">
              <mxPoint x="166" y="423" />
            </Array>
          </mxGeometry>
        </mxCell>
        <mxCell id="9KBp4cft7S8GD2c59fNu-16" value="&lt;font style=&quot;vertical-align: inherit&quot;&gt;&lt;font style=&quot;vertical-align: inherit&quot;&gt;&lt;font style=&quot;vertical-align: inherit&quot;&gt;&lt;font style=&quot;vertical-align: inherit&quot;&gt;&lt;font style=&quot;vertical-align: inherit&quot;&gt;&lt;font style=&quot;vertical-align: inherit&quot;&gt;&lt;font style=&quot;vertical-align: inherit&quot;&gt;&lt;font style=&quot;vertical-align: inherit&quot;&gt;Cadastrar-se&lt;/font&gt;&lt;/font&gt;&lt;/font&gt;&lt;/font&gt;&lt;/font&gt;&lt;/font&gt;&lt;/font&gt;&lt;/font&gt;" style="ellipse;whiteSpace=wrap;html=1;" parent="1" vertex="1">
          <mxGeometry x="203" y="397.5" width="110" height="50" as="geometry" />
        </mxCell>
        <mxCell id="3GYnURnb8D_fZ_eO1M6K-153" style="edgeStyle=none;rounded=0;orthogonalLoop=1;jettySize=auto;html=1;entryX=0.5;entryY=1;entryDx=0;entryDy=0;dashed=1;startArrow=none;startFill=0;endArrow=open;endFill=0;" parent="1" source="9KBp4cft7S8GD2c59fNu-17" target="3GYnURnb8D_fZ_eO1M6K-4" edge="1">
          <mxGeometry relative="1" as="geometry" />
        </mxCell>
        <mxCell id="9KBp4cft7S8GD2c59fNu-17" value="&lt;font style=&quot;vertical-align: inherit&quot;&gt;&lt;font style=&quot;vertical-align: inherit&quot;&gt;&lt;font style=&quot;vertical-align: inherit&quot;&gt;&lt;font style=&quot;vertical-align: inherit&quot;&gt;Visualiza Desconto por Departamento&lt;/font&gt;&lt;/font&gt;&lt;/font&gt;&lt;/font&gt;" style="ellipse;whiteSpace=wrap;html=1;" parent="1" vertex="1">
          <mxGeometry x="260" y="280" width="120" height="50" as="geometry" />
        </mxCell>
        <mxCell id="3GYnURnb8D_fZ_eO1M6K-161" style="edgeStyle=none;rounded=0;orthogonalLoop=1;jettySize=auto;html=1;dashed=1;startArrow=none;startFill=0;endArrow=open;endFill=0;" parent="1" source="9KBp4cft7S8GD2c59fNu-18" target="3GYnURnb8D_fZ_eO1M6K-126" edge="1">
          <mxGeometry relative="1" as="geometry" />
        </mxCell>
        <mxCell id="3GYnURnb8D_fZ_eO1M6K-162" value="Include" style="edgeLabel;html=1;align=center;verticalAlign=middle;resizable=0;points=[];" parent="3GYnURnb8D_fZ_eO1M6K-161" vertex="1" connectable="0">
          <mxGeometry x="-0.1654" y="-1" relative="1" as="geometry">
            <mxPoint as="offset" />
          </mxGeometry>
        </mxCell>
        <mxCell id="3GYnURnb8D_fZ_eO1M6K-167" style="edgeStyle=orthogonalEdgeStyle;rounded=0;orthogonalLoop=1;jettySize=auto;html=1;entryX=0.96;entryY=0.261;entryDx=0;entryDy=0;entryPerimeter=0;dashed=1;startArrow=none;startFill=0;endArrow=open;endFill=0;" parent="1" source="9KBp4cft7S8GD2c59fNu-18" target="3GYnURnb8D_fZ_eO1M6K-138" edge="1">
          <mxGeometry relative="1" as="geometry">
            <Array as="points">
              <mxPoint x="535" y="483" />
            </Array>
          </mxGeometry>
        </mxCell>
        <mxCell id="3GYnURnb8D_fZ_eO1M6K-168" value="Extends" style="edgeLabel;html=1;align=center;verticalAlign=middle;resizable=0;points=[];" parent="3GYnURnb8D_fZ_eO1M6K-167" vertex="1" connectable="0">
          <mxGeometry x="-0.4857" y="-2" relative="1" as="geometry">
            <mxPoint as="offset" />
          </mxGeometry>
        </mxCell>
        <mxCell id="9KBp4cft7S8GD2c59fNu-18" value="Exibir dados do produto" style="ellipse;whiteSpace=wrap;html=1;" parent="1" vertex="1">
          <mxGeometry x="480" y="310" width="110" height="50" as="geometry" />
        </mxCell>
        <mxCell id="3GYnURnb8D_fZ_eO1M6K-203" style="edgeStyle=none;rounded=0;orthogonalLoop=1;jettySize=auto;html=1;dashed=1;startArrow=none;startFill=0;endArrow=open;endFill=0;" parent="1" source="9KBp4cft7S8GD2c59fNu-19" target="3GYnURnb8D_fZ_eO1M6K-216" edge="1">
          <mxGeometry relative="1" as="geometry" />
        </mxCell>
        <mxCell id="3GYnURnb8D_fZ_eO1M6K-229" style="rounded=0;orthogonalLoop=1;jettySize=auto;html=1;dashed=1;startArrow=none;startFill=0;endArrow=none;endFill=0;exitX=0;exitY=0.5;exitDx=0;exitDy=0;" parent="1" source="9KBp4cft7S8GD2c59fNu-19" target="3GYnURnb8D_fZ_eO1M6K-227" edge="1">
          <mxGeometry relative="1" as="geometry" />
        </mxCell>
        <mxCell id="EJIqz_CYbdoUF1vv5kKt-8" style="edgeStyle=none;rounded=0;orthogonalLoop=1;jettySize=auto;html=1;dashed=1;" edge="1" parent="1" source="9KBp4cft7S8GD2c59fNu-19" target="EJIqz_CYbdoUF1vv5kKt-7">
          <mxGeometry relative="1" as="geometry" />
        </mxCell>
        <mxCell id="9KBp4cft7S8GD2c59fNu-19" value="&lt;font style=&quot;vertical-align: inherit&quot;&gt;&lt;font style=&quot;vertical-align: inherit&quot;&gt;&lt;font style=&quot;vertical-align: inherit&quot;&gt;&lt;font style=&quot;vertical-align: inherit&quot;&gt;Concluir Pedido&lt;/font&gt;&lt;/font&gt;&lt;/font&gt;&lt;/font&gt;" style="ellipse;whiteSpace=wrap;html=1;" parent="1" vertex="1">
          <mxGeometry x="940" y="557.5" width="110" height="50" as="geometry" />
        </mxCell>
        <mxCell id="3GYnURnb8D_fZ_eO1M6K-154" style="edgeStyle=none;rounded=0;orthogonalLoop=1;jettySize=auto;html=1;dashed=1;startArrow=none;startFill=0;endArrow=open;endFill=0;entryX=0.26;entryY=0.951;entryDx=0;entryDy=0;entryPerimeter=0;" parent="1" source="9KBp4cft7S8GD2c59fNu-20" target="3GYnURnb8D_fZ_eO1M6K-4" edge="1">
          <mxGeometry relative="1" as="geometry" />
        </mxCell>
        <mxCell id="9KBp4cft7S8GD2c59fNu-20" value="&lt;font style=&quot;vertical-align: inherit&quot;&gt;&lt;font style=&quot;vertical-align: inherit&quot;&gt;&lt;font style=&quot;vertical-align: inherit&quot;&gt;&lt;font style=&quot;vertical-align: inherit&quot;&gt;&lt;font style=&quot;vertical-align: inherit&quot;&gt;&lt;font style=&quot;vertical-align: inherit&quot;&gt;Visualizar os mais Vendidos&lt;/font&gt;&lt;/font&gt;&lt;/font&gt;&lt;/font&gt;&lt;/font&gt;&lt;/font&gt;" style="ellipse;whiteSpace=wrap;html=1;" parent="1" vertex="1">
          <mxGeometry x="230" y="340" width="110" height="50" as="geometry" />
        </mxCell>
        <mxCell id="3GYnURnb8D_fZ_eO1M6K-140" style="edgeStyle=none;rounded=0;orthogonalLoop=1;jettySize=auto;html=1;endArrow=none;endFill=0;dashed=1;startArrow=open;startFill=0;" parent="1" source="9KBp4cft7S8GD2c59fNu-21" target="3GYnURnb8D_fZ_eO1M6K-138" edge="1">
          <mxGeometry relative="1" as="geometry" />
        </mxCell>
        <mxCell id="3GYnURnb8D_fZ_eO1M6K-141" value="Include" style="edgeLabel;html=1;align=center;verticalAlign=middle;resizable=0;points=[];" parent="3GYnURnb8D_fZ_eO1M6K-140" vertex="1" connectable="0">
          <mxGeometry x="0.404" y="1" relative="1" as="geometry">
            <mxPoint as="offset" />
          </mxGeometry>
        </mxCell>
        <mxCell id="3GYnURnb8D_fZ_eO1M6K-217" style="edgeStyle=none;rounded=0;orthogonalLoop=1;jettySize=auto;html=1;dashed=1;startArrow=none;startFill=0;endArrow=none;endFill=0;" parent="1" source="9KBp4cft7S8GD2c59fNu-21" target="3GYnURnb8D_fZ_eO1M6K-216" edge="1">
          <mxGeometry relative="1" as="geometry" />
        </mxCell>
        <mxCell id="9KBp4cft7S8GD2c59fNu-21" value="&lt;font style=&quot;vertical-align: inherit&quot;&gt;&lt;font style=&quot;vertical-align: inherit&quot;&gt;&lt;font style=&quot;vertical-align: inherit&quot;&gt;&lt;font style=&quot;vertical-align: inherit&quot;&gt;Armazenar dados&amp;nbsp; do Cliente&lt;/font&gt;&lt;/font&gt;&lt;/font&gt;&lt;/font&gt;" style="ellipse;whiteSpace=wrap;html=1;" parent="1" vertex="1">
          <mxGeometry x="359" y="390" width="110" height="50" as="geometry" />
        </mxCell>
        <mxCell id="9KBp4cft7S8GD2c59fNu-22" value="Extends" style="endArrow=block;endSize=16;endFill=0;html=1;dashed=1;exitX=0.5;exitY=1;exitDx=0;exitDy=0;" parent="1" source="9KBp4cft7S8GD2c59fNu-18" target="9KBp4cft7S8GD2c59fNu-21" edge="1">
          <mxGeometry width="160" relative="1" as="geometry">
            <mxPoint x="440" y="340" as="sourcePoint" />
            <mxPoint x="530" y="345" as="targetPoint" />
          </mxGeometry>
        </mxCell>
        <mxCell id="9KBp4cft7S8GD2c59fNu-26" value="include" style="endArrow=open;endSize=12;dashed=1;html=1;exitX=0;exitY=1;exitDx=0;exitDy=0;entryX=1;entryY=0.5;entryDx=0;entryDy=0;" parent="1" source="9KBp4cft7S8GD2c59fNu-18" target="9KBp4cft7S8GD2c59fNu-20" edge="1">
          <mxGeometry width="160" relative="1" as="geometry">
            <mxPoint x="360" y="515" as="sourcePoint" />
            <mxPoint x="440" y="375" as="targetPoint" />
          </mxGeometry>
        </mxCell>
        <mxCell id="9KBp4cft7S8GD2c59fNu-27" value="include" style="endArrow=open;endSize=12;dashed=1;html=1;entryX=0;entryY=0.5;entryDx=0;entryDy=0;" parent="1" source="3GYnURnb8D_fZ_eO1M6K-135" target="9KBp4cft7S8GD2c59fNu-15" edge="1">
          <mxGeometry width="160" relative="1" as="geometry">
            <mxPoint x="533.0100000000002" y="371" as="sourcePoint" />
            <mxPoint x="407.8908729652603" y="437.32233047033606" as="targetPoint" />
          </mxGeometry>
        </mxCell>
        <mxCell id="3GYnURnb8D_fZ_eO1M6K-172" style="rounded=0;orthogonalLoop=1;jettySize=auto;html=1;dashed=1;startArrow=none;startFill=0;endArrow=open;endFill=0;" parent="1" source="9KBp4cft7S8GD2c59fNu-28" target="3GYnURnb8D_fZ_eO1M6K-171" edge="1">
          <mxGeometry relative="1" as="geometry" />
        </mxCell>
        <mxCell id="3GYnURnb8D_fZ_eO1M6K-186" style="edgeStyle=none;rounded=0;orthogonalLoop=1;jettySize=auto;html=1;dashed=1;startArrow=none;startFill=0;endArrow=open;endFill=0;" parent="1" source="9KBp4cft7S8GD2c59fNu-28" target="3GYnURnb8D_fZ_eO1M6K-158" edge="1">
          <mxGeometry relative="1" as="geometry" />
        </mxCell>
        <mxCell id="9KBp4cft7S8GD2c59fNu-28" value="&lt;font style=&quot;vertical-align: inherit&quot;&gt;&lt;font style=&quot;vertical-align: inherit&quot;&gt;&lt;font style=&quot;vertical-align: inherit&quot;&gt;&lt;font style=&quot;vertical-align: inherit&quot;&gt;Sair&lt;/font&gt;&lt;/font&gt;&lt;/font&gt;&lt;/font&gt;" style="ellipse;whiteSpace=wrap;html=1;" parent="1" vertex="1">
          <mxGeometry x="920" y="645" width="110" height="50" as="geometry" />
        </mxCell>
        <mxCell id="9KBp4cft7S8GD2c59fNu-29" value="Extends" style="endArrow=block;endSize=16;endFill=0;html=1;dashed=1;entryX=0.364;entryY=1;entryDx=0;entryDy=0;entryPerimeter=0;" parent="1" source="9KBp4cft7S8GD2c59fNu-28" target="9KBp4cft7S8GD2c59fNu-19" edge="1">
          <mxGeometry width="160" relative="1" as="geometry">
            <mxPoint x="290" y="390" as="sourcePoint" />
            <mxPoint x="450" y="390" as="targetPoint" />
          </mxGeometry>
        </mxCell>
        <mxCell id="9KBp4cft7S8GD2c59fNu-30" value="Extends" style="endArrow=block;endSize=16;endFill=0;html=1;dashed=1;entryX=1;entryY=1;entryDx=0;entryDy=0;exitX=0.22;exitY=0.105;exitDx=0;exitDy=0;exitPerimeter=0;" parent="1" source="9KBp4cft7S8GD2c59fNu-18" target="9KBp4cft7S8GD2c59fNu-17" edge="1">
          <mxGeometry width="160" relative="1" as="geometry">
            <mxPoint x="530.0000000000005" y="310" as="sourcePoint" />
            <mxPoint x="580.7931877007431" y="430.8484190912636" as="targetPoint" />
          </mxGeometry>
        </mxCell>
        <mxCell id="9KBp4cft7S8GD2c59fNu-32" value="Extends" style="endArrow=block;endSize=16;endFill=0;html=1;dashed=1;entryX=1;entryY=0.5;entryDx=0;entryDy=0;exitX=0.5;exitY=0;exitDx=0;exitDy=0;" parent="1" source="9KBp4cft7S8GD2c59fNu-18" target="9KBp4cft7S8GD2c59fNu-14" edge="1">
          <mxGeometry width="160" relative="1" as="geometry">
            <mxPoint x="494.20000000000005" y="335.25" as="sourcePoint" />
            <mxPoint x="473.8908729652601" y="242.67766952966372" as="targetPoint" />
          </mxGeometry>
        </mxCell>
        <mxCell id="3GYnURnb8D_fZ_eO1M6K-1" value="&lt;font style=&quot;vertical-align: inherit&quot;&gt;&lt;font style=&quot;vertical-align: inherit&quot;&gt;Site&lt;/font&gt;&lt;/font&gt;" style="text;html=1;strokeColor=none;fillColor=none;align=center;verticalAlign=middle;whiteSpace=wrap;rounded=0;" parent="1" vertex="1">
          <mxGeometry x="590" y="130" width="40" height="20" as="geometry" />
        </mxCell>
        <mxCell id="3GYnURnb8D_fZ_eO1M6K-4" value="&lt;font style=&quot;vertical-align: inherit&quot;&gt;&lt;font style=&quot;vertical-align: inherit&quot;&gt;acessar Site&lt;/font&gt;&lt;/font&gt;" style="ellipse;whiteSpace=wrap;html=1;" parent="1" vertex="1">
          <mxGeometry x="150" y="167.5" width="110" height="50" as="geometry" />
        </mxCell>
        <mxCell id="3GYnURnb8D_fZ_eO1M6K-7" style="edgeStyle=none;rounded=0;orthogonalLoop=1;jettySize=auto;html=1;exitX=0;exitY=0;exitDx=0;exitDy=0;endArrow=none;endFill=0;" parent="1" edge="1">
          <mxGeometry relative="1" as="geometry">
            <mxPoint x="1504.6399999999999" y="434" as="sourcePoint" />
            <mxPoint x="1504.6399999999999" y="434" as="targetPoint" />
          </mxGeometry>
        </mxCell>
        <mxCell id="3GYnURnb8D_fZ_eO1M6K-9" value="&lt;font style=&quot;vertical-align: inherit&quot;&gt;&lt;font style=&quot;vertical-align: inherit&quot;&gt;Cadastrar Produtos&lt;/font&gt;&lt;/font&gt;" style="ellipse;whiteSpace=wrap;html=1;" parent="1" vertex="1">
          <mxGeometry x="1160" y="168.75" width="110" height="50" as="geometry" />
        </mxCell>
        <mxCell id="3GYnURnb8D_fZ_eO1M6K-29" value="&lt;font style=&quot;vertical-align: inherit&quot;&gt;&lt;font style=&quot;vertical-align: inherit&quot;&gt;&lt;font style=&quot;vertical-align: inherit&quot;&gt;&lt;font style=&quot;vertical-align: inherit&quot;&gt;ERP&lt;/font&gt;&lt;/font&gt;&lt;/font&gt;&lt;/font&gt;" style="text;html=1;strokeColor=none;fillColor=none;align=center;verticalAlign=middle;whiteSpace=wrap;rounded=0;" parent="1" vertex="1">
          <mxGeometry x="1530" y="70" width="40" height="20" as="geometry" />
        </mxCell>
        <mxCell id="EJIqz_CYbdoUF1vv5kKt-146" style="edgeStyle=none;rounded=0;orthogonalLoop=1;jettySize=auto;html=1;" edge="1" parent="1" source="3GYnURnb8D_fZ_eO1M6K-30" target="3GYnURnb8D_fZ_eO1M6K-40">
          <mxGeometry relative="1" as="geometry" />
        </mxCell>
        <mxCell id="3GYnURnb8D_fZ_eO1M6K-30" value="&lt;font style=&quot;vertical-align: inherit&quot;&gt;&lt;font style=&quot;vertical-align: inherit&quot;&gt;Administrador&lt;/font&gt;&lt;/font&gt;" style="shape=umlActor;verticalLabelPosition=bottom;verticalAlign=top;html=1;outlineConnect=0;" parent="1" vertex="1">
          <mxGeometry x="1860" y="208.75" width="30" height="60" as="geometry" />
        </mxCell>
        <mxCell id="3GYnURnb8D_fZ_eO1M6K-32" value="&lt;font style=&quot;vertical-align: inherit&quot;&gt;&lt;font style=&quot;vertical-align: inherit&quot;&gt;&lt;font style=&quot;vertical-align: inherit&quot;&gt;&lt;font style=&quot;vertical-align: inherit&quot;&gt;Fiscal&lt;/font&gt;&lt;/font&gt;&lt;/font&gt;&lt;/font&gt;" style="shape=umlActor;verticalLabelPosition=bottom;verticalAlign=top;html=1;outlineConnect=0;" parent="1" vertex="1">
          <mxGeometry x="1910" y="300" width="30" height="60" as="geometry" />
        </mxCell>
        <mxCell id="3GYnURnb8D_fZ_eO1M6K-200" style="edgeStyle=none;rounded=0;orthogonalLoop=1;jettySize=auto;html=1;dashed=1;startArrow=none;startFill=0;endArrow=open;endFill=0;" parent="1" source="3GYnURnb8D_fZ_eO1M6K-36" target="3GYnURnb8D_fZ_eO1M6K-52" edge="1">
          <mxGeometry relative="1" as="geometry" />
        </mxCell>
        <mxCell id="3GYnURnb8D_fZ_eO1M6K-201" style="edgeStyle=none;rounded=0;orthogonalLoop=1;jettySize=auto;html=1;dashed=1;startArrow=none;startFill=0;endArrow=open;endFill=0;" parent="1" source="3GYnURnb8D_fZ_eO1M6K-36" target="3GYnURnb8D_fZ_eO1M6K-53" edge="1">
          <mxGeometry relative="1" as="geometry" />
        </mxCell>
        <mxCell id="3GYnURnb8D_fZ_eO1M6K-214" style="edgeStyle=none;rounded=0;orthogonalLoop=1;jettySize=auto;html=1;entryX=0.5;entryY=0;entryDx=0;entryDy=0;dashed=1;startArrow=none;startFill=0;endArrow=open;endFill=0;" parent="1" source="3GYnURnb8D_fZ_eO1M6K-36" target="3GYnURnb8D_fZ_eO1M6K-210" edge="1">
          <mxGeometry relative="1" as="geometry" />
        </mxCell>
        <mxCell id="3GYnURnb8D_fZ_eO1M6K-215" style="edgeStyle=none;rounded=0;orthogonalLoop=1;jettySize=auto;html=1;entryX=1;entryY=0;entryDx=0;entryDy=0;dashed=1;startArrow=none;startFill=0;endArrow=open;endFill=0;" parent="1" source="3GYnURnb8D_fZ_eO1M6K-36" target="3GYnURnb8D_fZ_eO1M6K-211" edge="1">
          <mxGeometry relative="1" as="geometry" />
        </mxCell>
        <mxCell id="3GYnURnb8D_fZ_eO1M6K-238" style="edgeStyle=none;rounded=0;orthogonalLoop=1;jettySize=auto;html=1;dashed=1;startArrow=none;startFill=0;endArrow=none;endFill=0;entryX=0.283;entryY=0.027;entryDx=0;entryDy=0;entryPerimeter=0;" parent="1" source="3GYnURnb8D_fZ_eO1M6K-36" target="3GYnURnb8D_fZ_eO1M6K-205" edge="1">
          <mxGeometry relative="1" as="geometry" />
        </mxCell>
        <mxCell id="EJIqz_CYbdoUF1vv5kKt-13" style="edgeStyle=none;rounded=0;orthogonalLoop=1;jettySize=auto;html=1;entryX=1;entryY=0;entryDx=0;entryDy=0;dashed=1;exitX=0;exitY=0.5;exitDx=0;exitDy=0;" edge="1" parent="1" source="3GYnURnb8D_fZ_eO1M6K-36" target="3GYnURnb8D_fZ_eO1M6K-216">
          <mxGeometry relative="1" as="geometry" />
        </mxCell>
        <mxCell id="EJIqz_CYbdoUF1vv5kKt-14" value="include" style="edgeLabel;html=1;align=center;verticalAlign=middle;resizable=0;points=[];" vertex="1" connectable="0" parent="EJIqz_CYbdoUF1vv5kKt-13">
          <mxGeometry x="0.2691" y="3" relative="1" as="geometry">
            <mxPoint x="109.95" y="-62.32" as="offset" />
          </mxGeometry>
        </mxCell>
        <mxCell id="3GYnURnb8D_fZ_eO1M6K-36" value="&lt;font style=&quot;vertical-align: inherit&quot;&gt;&lt;font style=&quot;vertical-align: inherit&quot;&gt;Controlar Financeiro&lt;/font&gt;&lt;/font&gt;" style="ellipse;whiteSpace=wrap;html=1;" parent="1" vertex="1">
          <mxGeometry x="1540" y="218.75" width="110" height="50" as="geometry" />
        </mxCell>
        <mxCell id="3GYnURnb8D_fZ_eO1M6K-37" value="&lt;font style=&quot;vertical-align: inherit&quot;&gt;&lt;font style=&quot;vertical-align: inherit&quot;&gt;&lt;font style=&quot;vertical-align: inherit&quot;&gt;&lt;font style=&quot;vertical-align: inherit&quot;&gt;&lt;font style=&quot;vertical-align: inherit&quot;&gt;&lt;font style=&quot;vertical-align: inherit&quot;&gt;Controlar&amp;nbsp; Estoque&lt;/font&gt;&lt;/font&gt;&lt;/font&gt;&lt;/font&gt;&lt;/font&gt;&lt;/font&gt;" style="ellipse;whiteSpace=wrap;html=1;" parent="1" vertex="1">
          <mxGeometry x="1280" y="557.5" width="110" height="50" as="geometry" />
        </mxCell>
        <mxCell id="3GYnURnb8D_fZ_eO1M6K-202" style="edgeStyle=none;rounded=0;orthogonalLoop=1;jettySize=auto;html=1;dashed=1;startArrow=openThin;startFill=0;endArrow=none;endFill=0;" parent="1" source="3GYnURnb8D_fZ_eO1M6K-40" target="3GYnURnb8D_fZ_eO1M6K-9" edge="1">
          <mxGeometry relative="1" as="geometry" />
        </mxCell>
        <mxCell id="EJIqz_CYbdoUF1vv5kKt-12" style="edgeStyle=none;rounded=0;orthogonalLoop=1;jettySize=auto;html=1;entryX=0.5;entryY=0;entryDx=0;entryDy=0;dashed=1;" edge="1" parent="1" source="3GYnURnb8D_fZ_eO1M6K-40" target="3GYnURnb8D_fZ_eO1M6K-216">
          <mxGeometry relative="1" as="geometry" />
        </mxCell>
        <mxCell id="EJIqz_CYbdoUF1vv5kKt-17" style="edgeStyle=none;rounded=0;orthogonalLoop=1;jettySize=auto;html=1;entryX=0.713;entryY=0.074;entryDx=0;entryDy=0;entryPerimeter=0;dashed=1;" edge="1" parent="1" source="3GYnURnb8D_fZ_eO1M6K-40" target="3GYnURnb8D_fZ_eO1M6K-53">
          <mxGeometry relative="1" as="geometry" />
        </mxCell>
        <mxCell id="EJIqz_CYbdoUF1vv5kKt-20" style="edgeStyle=none;rounded=0;orthogonalLoop=1;jettySize=auto;html=1;dashed=1;" edge="1" parent="1" source="3GYnURnb8D_fZ_eO1M6K-40" target="EJIqz_CYbdoUF1vv5kKt-5">
          <mxGeometry relative="1" as="geometry" />
        </mxCell>
        <mxCell id="EJIqz_CYbdoUF1vv5kKt-21" value="include" style="edgeLabel;html=1;align=center;verticalAlign=middle;resizable=0;points=[];" vertex="1" connectable="0" parent="EJIqz_CYbdoUF1vv5kKt-20">
          <mxGeometry x="0.3879" y="3" relative="1" as="geometry">
            <mxPoint as="offset" />
          </mxGeometry>
        </mxCell>
        <mxCell id="3GYnURnb8D_fZ_eO1M6K-40" value="&lt;font style=&quot;vertical-align: inherit&quot;&gt;&lt;font style=&quot;vertical-align: inherit&quot;&gt;&lt;font style=&quot;vertical-align: inherit&quot;&gt;&lt;font style=&quot;vertical-align: inherit&quot;&gt;&lt;font style=&quot;vertical-align: inherit&quot;&gt;&lt;font style=&quot;vertical-align: inherit&quot;&gt;&lt;font style=&quot;vertical-align: inherit&quot;&gt;&lt;font style=&quot;vertical-align: inherit&quot;&gt;Controlar PDV Caixa&lt;/font&gt;&lt;/font&gt;&lt;/font&gt;&lt;/font&gt;&lt;/font&gt;&lt;/font&gt;&lt;/font&gt;&lt;/font&gt;" style="ellipse;whiteSpace=wrap;html=1;" parent="1" vertex="1">
          <mxGeometry x="1330" y="130" width="110" height="50" as="geometry" />
        </mxCell>
        <mxCell id="3GYnURnb8D_fZ_eO1M6K-221" style="edgeStyle=none;rounded=0;orthogonalLoop=1;jettySize=auto;html=1;entryX=0.5;entryY=1;entryDx=0;entryDy=0;dashed=1;startArrow=none;startFill=0;endArrow=none;endFill=0;" parent="1" source="3GYnURnb8D_fZ_eO1M6K-42" target="3GYnURnb8D_fZ_eO1M6K-216" edge="1">
          <mxGeometry relative="1" as="geometry" />
        </mxCell>
        <mxCell id="3GYnURnb8D_fZ_eO1M6K-222" style="edgeStyle=none;rounded=0;orthogonalLoop=1;jettySize=auto;html=1;dashed=1;startArrow=none;startFill=0;endArrow=none;endFill=0;" parent="1" source="3GYnURnb8D_fZ_eO1M6K-42" target="3GYnURnb8D_fZ_eO1M6K-37" edge="1">
          <mxGeometry relative="1" as="geometry" />
        </mxCell>
        <mxCell id="3GYnURnb8D_fZ_eO1M6K-226" style="rounded=0;orthogonalLoop=1;jettySize=auto;html=1;entryX=0.394;entryY=1.016;entryDx=0;entryDy=0;dashed=1;startArrow=none;startFill=0;endArrow=none;endFill=0;entryPerimeter=0;" parent="1" source="3GYnURnb8D_fZ_eO1M6K-42" target="3GYnURnb8D_fZ_eO1M6K-225" edge="1">
          <mxGeometry relative="1" as="geometry" />
        </mxCell>
        <mxCell id="3GYnURnb8D_fZ_eO1M6K-42" value="&lt;font style=&quot;vertical-align: inherit&quot;&gt;&lt;font style=&quot;vertical-align: inherit&quot;&gt;&lt;font style=&quot;vertical-align: inherit&quot;&gt;&lt;font style=&quot;vertical-align: inherit&quot;&gt;&lt;font style=&quot;vertical-align: inherit&quot;&gt;&lt;font style=&quot;vertical-align: inherit&quot;&gt;&lt;font style=&quot;vertical-align: inherit&quot;&gt;&lt;font style=&quot;vertical-align: inherit&quot;&gt;Entregar Pedidos&lt;/font&gt;&lt;/font&gt;&lt;/font&gt;&lt;/font&gt;&lt;/font&gt;&lt;/font&gt;&lt;/font&gt;&lt;/font&gt;" style="ellipse;whiteSpace=wrap;html=1;" parent="1" vertex="1">
          <mxGeometry x="1170" y="507.5" width="110" height="50" as="geometry" />
        </mxCell>
        <mxCell id="3GYnURnb8D_fZ_eO1M6K-206" value="" style="edgeStyle=none;rounded=0;orthogonalLoop=1;jettySize=auto;html=1;dashed=1;startArrow=none;startFill=0;endArrow=open;endFill=0;" parent="1" source="3GYnURnb8D_fZ_eO1M6K-43" target="3GYnURnb8D_fZ_eO1M6K-205" edge="1">
          <mxGeometry relative="1" as="geometry" />
        </mxCell>
        <mxCell id="3GYnURnb8D_fZ_eO1M6K-43" value="&lt;font style=&quot;vertical-align: inherit&quot;&gt;&lt;font style=&quot;vertical-align: inherit&quot;&gt;Cadastrar Departamento&lt;/font&gt;&lt;/font&gt;" style="ellipse;whiteSpace=wrap;html=1;" parent="1" vertex="1">
          <mxGeometry x="1430" y="580" width="110" height="50" as="geometry" />
        </mxCell>
        <mxCell id="3GYnURnb8D_fZ_eO1M6K-233" style="rounded=0;orthogonalLoop=1;jettySize=auto;html=1;dashed=1;startArrow=none;startFill=0;endArrow=none;endFill=0;" parent="1" source="3GYnURnb8D_fZ_eO1M6K-44" target="3GYnURnb8D_fZ_eO1M6K-205" edge="1">
          <mxGeometry relative="1" as="geometry" />
        </mxCell>
        <mxCell id="3GYnURnb8D_fZ_eO1M6K-44" value="&lt;font style=&quot;vertical-align: inherit&quot;&gt;&lt;font style=&quot;vertical-align: inherit&quot;&gt;Cadastrar Funcionário&lt;/font&gt;&lt;/font&gt;" style="ellipse;whiteSpace=wrap;html=1;" parent="1" vertex="1">
          <mxGeometry x="1430" y="640" width="110" height="50" as="geometry" />
        </mxCell>
        <mxCell id="3GYnURnb8D_fZ_eO1M6K-207" style="edgeStyle=none;rounded=0;orthogonalLoop=1;jettySize=auto;html=1;dashed=1;startArrow=none;startFill=0;endArrow=open;endFill=0;" parent="1" source="3GYnURnb8D_fZ_eO1M6K-45" target="3GYnURnb8D_fZ_eO1M6K-40" edge="1">
          <mxGeometry relative="1" as="geometry" />
        </mxCell>
        <mxCell id="3GYnURnb8D_fZ_eO1M6K-45" value="&lt;font style=&quot;vertical-align: inherit&quot;&gt;&lt;font style=&quot;vertical-align: inherit&quot;&gt;Validar Cliente&lt;/font&gt;&lt;/font&gt;" style="ellipse;whiteSpace=wrap;html=1;" parent="1" vertex="1">
          <mxGeometry x="1150" y="105" width="110" height="50" as="geometry" />
        </mxCell>
        <mxCell id="3GYnURnb8D_fZ_eO1M6K-46" value="&lt;font style=&quot;vertical-align: inherit&quot;&gt;&lt;font style=&quot;vertical-align: inherit&quot;&gt;Manter Filial&lt;/font&gt;&lt;/font&gt;" style="ellipse;whiteSpace=wrap;html=1;" parent="1" vertex="1">
          <mxGeometry x="1630" y="400" width="110" height="50" as="geometry" />
        </mxCell>
        <mxCell id="3GYnURnb8D_fZ_eO1M6K-52" value="&lt;font style=&quot;vertical-align: inherit&quot;&gt;&lt;font style=&quot;vertical-align: inherit&quot;&gt;Realizar Compras&lt;/font&gt;&lt;/font&gt;" style="ellipse;whiteSpace=wrap;html=1;" parent="1" vertex="1">
          <mxGeometry x="1620" y="312.5" width="110" height="47.5" as="geometry" />
        </mxCell>
        <mxCell id="3GYnURnb8D_fZ_eO1M6K-53" value="&lt;font style=&quot;vertical-align: inherit&quot;&gt;&lt;font style=&quot;vertical-align: inherit&quot;&gt;Realizar Vendas&lt;/font&gt;&lt;/font&gt;" style="ellipse;whiteSpace=wrap;html=1;" parent="1" vertex="1">
          <mxGeometry x="1300" y="250" width="110" height="47.5" as="geometry" />
        </mxCell>
        <mxCell id="3GYnURnb8D_fZ_eO1M6K-126" value="&lt;font style=&quot;vertical-align: inherit&quot;&gt;&lt;font style=&quot;vertical-align: inherit&quot;&gt;&lt;font style=&quot;vertical-align: inherit&quot;&gt;&lt;font style=&quot;vertical-align: inherit&quot;&gt;Validar em Estoque&amp;nbsp;&lt;/font&gt;&lt;/font&gt;&lt;/font&gt;&lt;/font&gt;" style="ellipse;whiteSpace=wrap;html=1;" parent="1" vertex="1">
          <mxGeometry x="850" y="312.5" width="110" height="50" as="geometry" />
        </mxCell>
        <mxCell id="3GYnURnb8D_fZ_eO1M6K-129" style="edgeStyle=none;rounded=0;orthogonalLoop=1;jettySize=auto;html=1;entryX=1;entryY=0.5;entryDx=0;entryDy=0;dashed=1;endArrow=none;endFill=0;" parent="1" source="3GYnURnb8D_fZ_eO1M6K-128" target="9KBp4cft7S8GD2c59fNu-13" edge="1">
          <mxGeometry relative="1" as="geometry" />
        </mxCell>
        <mxCell id="3GYnURnb8D_fZ_eO1M6K-136" style="edgeStyle=none;rounded=0;orthogonalLoop=1;jettySize=auto;html=1;endArrow=none;endFill=0;" parent="1" source="3GYnURnb8D_fZ_eO1M6K-128" target="9KBp4cft7S8GD2c59fNu-18" edge="1">
          <mxGeometry relative="1" as="geometry" />
        </mxCell>
        <mxCell id="3GYnURnb8D_fZ_eO1M6K-128" value="Exibir departamentos" style="ellipse;whiteSpace=wrap;html=1;" parent="1" vertex="1">
          <mxGeometry x="470" y="150" width="110" height="50" as="geometry" />
        </mxCell>
        <mxCell id="3GYnURnb8D_fZ_eO1M6K-132" value="&lt;font style=&quot;vertical-align: inherit&quot;&gt;&lt;font style=&quot;vertical-align: inherit&quot;&gt;&lt;font style=&quot;vertical-align: inherit&quot;&gt;&lt;font style=&quot;vertical-align: inherit&quot;&gt;&lt;font style=&quot;vertical-align: inherit&quot;&gt;&lt;font style=&quot;vertical-align: inherit&quot;&gt;Remover item ao carrinho&lt;/font&gt;&lt;/font&gt;&lt;/font&gt;&lt;/font&gt;&lt;/font&gt;&lt;/font&gt;" style="ellipse;whiteSpace=wrap;html=1;" parent="1" vertex="1">
          <mxGeometry x="870" y="150" width="110" height="50" as="geometry" />
        </mxCell>
        <mxCell id="3GYnURnb8D_fZ_eO1M6K-133" value="Extends" style="endArrow=block;endSize=16;endFill=0;html=1;dashed=1;" parent="1" source="3GYnURnb8D_fZ_eO1M6K-132" target="9KBp4cft7S8GD2c59fNu-15" edge="1">
          <mxGeometry width="160" relative="1" as="geometry">
            <mxPoint x="545" y="320" as="sourcePoint" />
            <mxPoint x="380" y="253.75" as="targetPoint" />
          </mxGeometry>
        </mxCell>
        <mxCell id="3GYnURnb8D_fZ_eO1M6K-173" style="rounded=0;orthogonalLoop=1;jettySize=auto;html=1;entryX=1;entryY=1;entryDx=0;entryDy=0;dashed=1;startArrow=none;startFill=0;endArrow=open;endFill=0;" parent="1" source="3GYnURnb8D_fZ_eO1M6K-134" target="9KBp4cft7S8GD2c59fNu-18" edge="1">
          <mxGeometry relative="1" as="geometry" />
        </mxCell>
        <mxCell id="3GYnURnb8D_fZ_eO1M6K-174" style="edgeStyle=none;rounded=0;orthogonalLoop=1;jettySize=auto;html=1;dashed=1;startArrow=none;startFill=0;endArrow=open;endFill=0;" parent="1" source="3GYnURnb8D_fZ_eO1M6K-134" target="3GYnURnb8D_fZ_eO1M6K-135" edge="1">
          <mxGeometry relative="1" as="geometry" />
        </mxCell>
        <mxCell id="3GYnURnb8D_fZ_eO1M6K-175" value="extends" style="edgeLabel;html=1;align=center;verticalAlign=middle;resizable=0;points=[];" parent="3GYnURnb8D_fZ_eO1M6K-174" vertex="1" connectable="0">
          <mxGeometry x="0.2843" relative="1" as="geometry">
            <mxPoint as="offset" />
          </mxGeometry>
        </mxCell>
        <mxCell id="3GYnURnb8D_fZ_eO1M6K-134" value="Consultar Frete" style="ellipse;whiteSpace=wrap;html=1;" parent="1" vertex="1">
          <mxGeometry x="700" y="350" width="110" height="50" as="geometry" />
        </mxCell>
        <mxCell id="3GYnURnb8D_fZ_eO1M6K-159" style="edgeStyle=none;rounded=0;orthogonalLoop=1;jettySize=auto;html=1;dashed=1;startArrow=none;startFill=0;endArrow=open;endFill=0;" parent="1" source="3GYnURnb8D_fZ_eO1M6K-135" target="9KBp4cft7S8GD2c59fNu-18" edge="1">
          <mxGeometry relative="1" as="geometry" />
        </mxCell>
        <mxCell id="3GYnURnb8D_fZ_eO1M6K-177" style="edgeStyle=none;rounded=0;orthogonalLoop=1;jettySize=auto;html=1;dashed=1;startArrow=none;startFill=0;endArrow=open;endFill=0;" parent="1" source="3GYnURnb8D_fZ_eO1M6K-135" target="3GYnURnb8D_fZ_eO1M6K-176" edge="1">
          <mxGeometry relative="1" as="geometry" />
        </mxCell>
        <mxCell id="3GYnURnb8D_fZ_eO1M6K-135" value="&lt;font style=&quot;vertical-align: inherit&quot;&gt;&lt;font style=&quot;vertical-align: inherit&quot;&gt;&lt;font style=&quot;vertical-align: inherit&quot;&gt;&lt;font style=&quot;vertical-align: inherit&quot;&gt;&lt;font style=&quot;vertical-align: inherit&quot;&gt;&lt;font style=&quot;vertical-align: inherit&quot;&gt;Adicionar item ao carrinho&lt;/font&gt;&lt;/font&gt;&lt;/font&gt;&lt;/font&gt;&lt;/font&gt;&lt;/font&gt;" style="ellipse;whiteSpace=wrap;html=1;" parent="1" vertex="1">
          <mxGeometry x="630" y="210" width="110" height="50" as="geometry" />
        </mxCell>
        <mxCell id="3GYnURnb8D_fZ_eO1M6K-146" style="edgeStyle=none;rounded=0;orthogonalLoop=1;jettySize=auto;html=1;dashed=1;startArrow=none;startFill=0;endArrow=open;endFill=0;" parent="1" source="3GYnURnb8D_fZ_eO1M6K-137" target="3GYnURnb8D_fZ_eO1M6K-138" edge="1">
          <mxGeometry relative="1" as="geometry" />
        </mxCell>
        <mxCell id="3GYnURnb8D_fZ_eO1M6K-147" value="Extends" style="edgeLabel;html=1;align=center;verticalAlign=middle;resizable=0;points=[];" parent="3GYnURnb8D_fZ_eO1M6K-146" vertex="1" connectable="0">
          <mxGeometry x="-0.2822" y="2" relative="1" as="geometry">
            <mxPoint as="offset" />
          </mxGeometry>
        </mxCell>
        <mxCell id="3GYnURnb8D_fZ_eO1M6K-148" style="edgeStyle=none;rounded=0;orthogonalLoop=1;jettySize=auto;html=1;dashed=1;startArrow=none;startFill=0;endArrow=open;endFill=0;" parent="1" source="3GYnURnb8D_fZ_eO1M6K-137" target="9KBp4cft7S8GD2c59fNu-21" edge="1">
          <mxGeometry relative="1" as="geometry" />
        </mxCell>
        <mxCell id="3GYnURnb8D_fZ_eO1M6K-149" value="include" style="edgeLabel;html=1;align=center;verticalAlign=middle;resizable=0;points=[];" parent="3GYnURnb8D_fZ_eO1M6K-148" vertex="1" connectable="0">
          <mxGeometry x="-0.2598" y="-2" relative="1" as="geometry">
            <mxPoint as="offset" />
          </mxGeometry>
        </mxCell>
        <mxCell id="3GYnURnb8D_fZ_eO1M6K-151" style="edgeStyle=none;rounded=0;orthogonalLoop=1;jettySize=auto;html=1;dashed=1;startArrow=none;startFill=0;endArrow=open;endFill=0;exitX=0.455;exitY=0.146;exitDx=0;exitDy=0;entryX=0.694;entryY=1.027;entryDx=0;entryDy=0;entryPerimeter=0;exitPerimeter=0;" parent="1" source="3GYnURnb8D_fZ_eO1M6K-137" target="9KBp4cft7S8GD2c59fNu-18" edge="1">
          <mxGeometry relative="1" as="geometry" />
        </mxCell>
        <mxCell id="3GYnURnb8D_fZ_eO1M6K-137" value="&lt;font style=&quot;vertical-align: inherit&quot;&gt;&lt;font style=&quot;vertical-align: inherit&quot;&gt;&lt;font style=&quot;vertical-align: inherit&quot;&gt;&lt;font style=&quot;vertical-align: inherit&quot;&gt;&lt;font style=&quot;vertical-align: inherit&quot;&gt;&lt;font style=&quot;vertical-align: inherit&quot;&gt;&lt;font style=&quot;vertical-align: inherit&quot;&gt;&lt;font style=&quot;vertical-align: inherit&quot;&gt;Avaliar&lt;/font&gt;&lt;/font&gt;&lt;/font&gt;&lt;/font&gt;&lt;/font&gt;&lt;/font&gt;&lt;/font&gt;&lt;/font&gt;" style="ellipse;whiteSpace=wrap;html=1;" parent="1" vertex="1">
          <mxGeometry x="520" y="600" width="110" height="50" as="geometry" />
        </mxCell>
        <mxCell id="3GYnURnb8D_fZ_eO1M6K-157" style="edgeStyle=orthogonalEdgeStyle;rounded=0;orthogonalLoop=1;jettySize=auto;html=1;dashed=1;startArrow=none;startFill=0;endArrow=open;endFill=0;" parent="1" source="3GYnURnb8D_fZ_eO1M6K-138" edge="1">
          <mxGeometry relative="1" as="geometry">
            <mxPoint x="160" y="200" as="targetPoint" />
            <Array as="points">
              <mxPoint x="160" y="515" />
            </Array>
          </mxGeometry>
        </mxCell>
        <mxCell id="3GYnURnb8D_fZ_eO1M6K-138" value="&lt;font style=&quot;vertical-align: inherit&quot;&gt;&lt;font style=&quot;vertical-align: inherit&quot;&gt;&lt;font style=&quot;vertical-align: inherit&quot;&gt;&lt;font style=&quot;vertical-align: inherit&quot;&gt;&lt;font style=&quot;vertical-align: inherit&quot;&gt;&lt;font style=&quot;vertical-align: inherit&quot;&gt;&lt;font style=&quot;vertical-align: inherit&quot;&gt;&lt;font style=&quot;vertical-align: inherit&quot;&gt;Logar-se&lt;/font&gt;&lt;/font&gt;&lt;/font&gt;&lt;/font&gt;&lt;/font&gt;&lt;/font&gt;&lt;/font&gt;&lt;/font&gt;" style="ellipse;whiteSpace=wrap;html=1;" parent="1" vertex="1">
          <mxGeometry x="180" y="470" width="110" height="50" as="geometry" />
        </mxCell>
        <mxCell id="3GYnURnb8D_fZ_eO1M6K-142" style="edgeStyle=none;rounded=0;orthogonalLoop=1;jettySize=auto;html=1;dashed=1;startArrow=none;startFill=0;endArrow=open;endFill=0;" parent="1" source="3GYnURnb8D_fZ_eO1M6K-139" target="9KBp4cft7S8GD2c59fNu-21" edge="1">
          <mxGeometry relative="1" as="geometry" />
        </mxCell>
        <mxCell id="3GYnURnb8D_fZ_eO1M6K-180" value="Include" style="edgeLabel;html=1;align=center;verticalAlign=middle;resizable=0;points=[];" parent="3GYnURnb8D_fZ_eO1M6K-142" vertex="1" connectable="0">
          <mxGeometry x="-0.8808" y="-1" relative="1" as="geometry">
            <mxPoint as="offset" />
          </mxGeometry>
        </mxCell>
        <mxCell id="3GYnURnb8D_fZ_eO1M6K-156" style="edgeStyle=orthogonalEdgeStyle;rounded=0;orthogonalLoop=1;jettySize=auto;html=1;entryX=0;entryY=0.5;entryDx=0;entryDy=0;dashed=1;startArrow=none;startFill=0;endArrow=open;endFill=0;exitX=0;exitY=0.5;exitDx=0;exitDy=0;" parent="1" source="3GYnURnb8D_fZ_eO1M6K-139" target="3GYnURnb8D_fZ_eO1M6K-4" edge="1">
          <mxGeometry relative="1" as="geometry">
            <Array as="points">
              <mxPoint x="150" y="595" />
            </Array>
          </mxGeometry>
        </mxCell>
        <mxCell id="3GYnURnb8D_fZ_eO1M6K-139" value="&lt;font style=&quot;vertical-align: inherit&quot;&gt;&lt;font style=&quot;vertical-align: inherit&quot;&gt;&lt;font style=&quot;vertical-align: inherit&quot;&gt;&lt;font style=&quot;vertical-align: inherit&quot;&gt;&lt;font style=&quot;vertical-align: inherit&quot;&gt;&lt;font style=&quot;vertical-align: inherit&quot;&gt;&lt;font style=&quot;vertical-align: inherit&quot;&gt;&lt;font style=&quot;vertical-align: inherit&quot;&gt;Cadastrar E-mail&lt;/font&gt;&lt;/font&gt;&lt;/font&gt;&lt;/font&gt;&lt;/font&gt;&lt;/font&gt;&lt;/font&gt;&lt;/font&gt;" style="ellipse;whiteSpace=wrap;html=1;" parent="1" vertex="1">
          <mxGeometry x="170" y="570" width="110" height="50" as="geometry" />
        </mxCell>
        <mxCell id="3GYnURnb8D_fZ_eO1M6K-184" style="edgeStyle=none;rounded=0;orthogonalLoop=1;jettySize=auto;html=1;entryX=0.091;entryY=0.75;entryDx=0;entryDy=0;entryPerimeter=0;dashed=1;startArrow=none;startFill=0;endArrow=open;endFill=0;" parent="1" source="3GYnURnb8D_fZ_eO1M6K-158" target="3GYnURnb8D_fZ_eO1M6K-126" edge="1">
          <mxGeometry relative="1" as="geometry" />
        </mxCell>
        <mxCell id="3GYnURnb8D_fZ_eO1M6K-185" value="include" style="edgeLabel;html=1;align=center;verticalAlign=middle;resizable=0;points=[];" parent="3GYnURnb8D_fZ_eO1M6K-184" vertex="1" connectable="0">
          <mxGeometry x="0.4641" y="-4" relative="1" as="geometry">
            <mxPoint x="-1" as="offset" />
          </mxGeometry>
        </mxCell>
        <mxCell id="3GYnURnb8D_fZ_eO1M6K-158" value="&lt;font style=&quot;vertical-align: inherit&quot;&gt;&lt;font style=&quot;vertical-align: inherit&quot;&gt;&lt;font style=&quot;vertical-align: inherit&quot;&gt;&lt;font style=&quot;vertical-align: inherit&quot;&gt;&lt;font style=&quot;vertical-align: inherit&quot;&gt;&lt;font style=&quot;vertical-align: inherit&quot;&gt;Fazer Pedido&lt;/font&gt;&lt;/font&gt;&lt;/font&gt;&lt;/font&gt;&lt;/font&gt;&lt;/font&gt;" style="ellipse;whiteSpace=wrap;html=1;" parent="1" vertex="1">
          <mxGeometry x="730" y="450" width="110" height="50" as="geometry" />
        </mxCell>
        <mxCell id="3GYnURnb8D_fZ_eO1M6K-169" style="edgeStyle=orthogonalEdgeStyle;rounded=0;orthogonalLoop=1;jettySize=auto;html=1;exitX=0.5;exitY=1;exitDx=0;exitDy=0;dashed=1;startArrow=none;startFill=0;endArrow=open;endFill=0;" parent="1" source="3GYnURnb8D_fZ_eO1M6K-132" target="3GYnURnb8D_fZ_eO1M6K-132" edge="1">
          <mxGeometry relative="1" as="geometry" />
        </mxCell>
        <mxCell id="3GYnURnb8D_fZ_eO1M6K-183" style="edgeStyle=none;rounded=0;orthogonalLoop=1;jettySize=auto;html=1;dashed=1;startArrow=none;startFill=0;endArrow=open;endFill=0;" parent="1" source="3GYnURnb8D_fZ_eO1M6K-171" target="3GYnURnb8D_fZ_eO1M6K-158" edge="1">
          <mxGeometry relative="1" as="geometry" />
        </mxCell>
        <mxCell id="3GYnURnb8D_fZ_eO1M6K-188" style="edgeStyle=none;rounded=0;orthogonalLoop=1;jettySize=auto;html=1;dashed=1;startArrow=none;startFill=0;endArrow=open;endFill=0;" parent="1" source="3GYnURnb8D_fZ_eO1M6K-171" target="9KBp4cft7S8GD2c59fNu-21" edge="1">
          <mxGeometry relative="1" as="geometry" />
        </mxCell>
        <mxCell id="3GYnURnb8D_fZ_eO1M6K-171" value="&lt;font style=&quot;vertical-align: inherit&quot;&gt;&lt;font style=&quot;vertical-align: inherit&quot;&gt;&lt;font style=&quot;vertical-align: inherit&quot;&gt;&lt;font style=&quot;vertical-align: inherit&quot;&gt;Validar dados Financeiro ERP&lt;/font&gt;&lt;/font&gt;&lt;/font&gt;&lt;/font&gt;" style="ellipse;whiteSpace=wrap;html=1;" parent="1" vertex="1">
          <mxGeometry x="790" y="600" width="110" height="50" as="geometry" />
        </mxCell>
        <mxCell id="3GYnURnb8D_fZ_eO1M6K-178" style="edgeStyle=orthogonalEdgeStyle;rounded=0;orthogonalLoop=1;jettySize=auto;html=1;dashed=1;startArrow=none;startFill=0;endArrow=open;endFill=0;entryX=0.989;entryY=0.401;entryDx=0;entryDy=0;entryPerimeter=0;" parent="1" source="3GYnURnb8D_fZ_eO1M6K-176" target="3GYnURnb8D_fZ_eO1M6K-138" edge="1">
          <mxGeometry relative="1" as="geometry">
            <Array as="points">
              <mxPoint x="620" y="495" />
              <mxPoint x="289" y="495" />
            </Array>
          </mxGeometry>
        </mxCell>
        <mxCell id="3GYnURnb8D_fZ_eO1M6K-179" value="Text" style="edgeLabel;html=1;align=center;verticalAlign=middle;resizable=0;points=[];" parent="3GYnURnb8D_fZ_eO1M6K-178" vertex="1" connectable="0">
          <mxGeometry x="0.7633" relative="1" as="geometry">
            <mxPoint as="offset" />
          </mxGeometry>
        </mxCell>
        <mxCell id="3GYnURnb8D_fZ_eO1M6K-181" style="rounded=0;orthogonalLoop=1;jettySize=auto;html=1;dashed=1;startArrow=none;startFill=0;endArrow=open;endFill=0;entryX=0.214;entryY=0.107;entryDx=0;entryDy=0;entryPerimeter=0;" parent="1" source="3GYnURnb8D_fZ_eO1M6K-176" target="3GYnURnb8D_fZ_eO1M6K-171" edge="1">
          <mxGeometry relative="1" as="geometry">
            <mxPoint x="725" y="460" as="targetPoint" />
          </mxGeometry>
        </mxCell>
        <mxCell id="3GYnURnb8D_fZ_eO1M6K-176" value="&lt;font style=&quot;vertical-align: inherit&quot;&gt;&lt;font style=&quot;vertical-align: inherit&quot;&gt;&lt;font style=&quot;vertical-align: inherit&quot;&gt;&lt;font style=&quot;vertical-align: inherit&quot;&gt;&lt;font style=&quot;vertical-align: inherit&quot;&gt;&lt;font style=&quot;vertical-align: inherit&quot;&gt;Escolher opção pagamento&lt;/font&gt;&lt;/font&gt;&lt;/font&gt;&lt;/font&gt;&lt;/font&gt;&lt;/font&gt;" style="ellipse;whiteSpace=wrap;html=1;" parent="1" vertex="1">
          <mxGeometry x="590" y="447.5" width="110" height="50" as="geometry" />
        </mxCell>
        <mxCell id="EJIqz_CYbdoUF1vv5kKt-139" style="edgeStyle=orthogonalEdgeStyle;rounded=0;orthogonalLoop=1;jettySize=auto;html=1;" edge="1" parent="1" source="3GYnURnb8D_fZ_eO1M6K-192" target="3GYnURnb8D_fZ_eO1M6K-30">
          <mxGeometry relative="1" as="geometry" />
        </mxCell>
        <mxCell id="EJIqz_CYbdoUF1vv5kKt-147" style="edgeStyle=none;rounded=0;orthogonalLoop=1;jettySize=auto;html=1;" edge="1" parent="1" source="3GYnURnb8D_fZ_eO1M6K-192" target="EJIqz_CYbdoUF1vv5kKt-1">
          <mxGeometry relative="1" as="geometry" />
        </mxCell>
        <mxCell id="3GYnURnb8D_fZ_eO1M6K-192" value="&lt;font style=&quot;vertical-align: inherit&quot;&gt;&lt;font style=&quot;vertical-align: inherit&quot;&gt;Gerente de loja&lt;/font&gt;&lt;/font&gt;" style="shape=umlActor;verticalLabelPosition=bottom;verticalAlign=top;html=1;outlineConnect=0;" parent="1" vertex="1">
          <mxGeometry x="1860" y="57.5" width="30" height="60" as="geometry" />
        </mxCell>
        <mxCell id="3GYnURnb8D_fZ_eO1M6K-235" style="edgeStyle=none;rounded=0;orthogonalLoop=1;jettySize=auto;html=1;dashed=1;startArrow=none;startFill=0;endArrow=none;endFill=0;" parent="1" source="3GYnURnb8D_fZ_eO1M6K-196" target="3GYnURnb8D_fZ_eO1M6K-37" edge="1">
          <mxGeometry relative="1" as="geometry" />
        </mxCell>
        <mxCell id="3GYnURnb8D_fZ_eO1M6K-196" value="&lt;font style=&quot;vertical-align: inherit&quot;&gt;&lt;font style=&quot;vertical-align: inherit&quot;&gt;&lt;font style=&quot;vertical-align: inherit&quot;&gt;&lt;font style=&quot;vertical-align: inherit&quot;&gt;Encarregado Estoque&lt;/font&gt;&lt;/font&gt;&lt;/font&gt;&lt;/font&gt;" style="shape=umlActor;verticalLabelPosition=bottom;verticalAlign=top;html=1;outlineConnect=0;" parent="1" vertex="1">
          <mxGeometry x="1870" y="535" width="30" height="60" as="geometry" />
        </mxCell>
        <mxCell id="3GYnURnb8D_fZ_eO1M6K-197" value="&lt;font style=&quot;vertical-align: inherit&quot;&gt;&lt;font style=&quot;vertical-align: inherit&quot;&gt;&lt;font style=&quot;vertical-align: inherit&quot;&gt;&lt;font style=&quot;vertical-align: inherit&quot;&gt;Fornecedor&lt;/font&gt;&lt;/font&gt;&lt;/font&gt;&lt;/font&gt;" style="shape=umlActor;verticalLabelPosition=bottom;verticalAlign=top;html=1;outlineConnect=0;" parent="1" vertex="1">
          <mxGeometry x="2060" y="590" width="30" height="60" as="geometry" />
        </mxCell>
        <mxCell id="3GYnURnb8D_fZ_eO1M6K-205" value="&lt;font style=&quot;vertical-align: inherit&quot;&gt;&lt;font style=&quot;vertical-align: inherit&quot;&gt;Controlar Departamento&lt;/font&gt;&lt;/font&gt;" style="ellipse;whiteSpace=wrap;html=1;" parent="1" vertex="1">
          <mxGeometry x="1560" y="595" width="110" height="50" as="geometry" />
        </mxCell>
        <mxCell id="3GYnURnb8D_fZ_eO1M6K-223" style="rounded=0;orthogonalLoop=1;jettySize=auto;html=1;dashed=1;startArrow=none;startFill=0;endArrow=none;endFill=0;" parent="1" source="3GYnURnb8D_fZ_eO1M6K-210" target="3GYnURnb8D_fZ_eO1M6K-37" edge="1">
          <mxGeometry relative="1" as="geometry" />
        </mxCell>
        <mxCell id="3GYnURnb8D_fZ_eO1M6K-210" value="&lt;font style=&quot;vertical-align: inherit&quot;&gt;&lt;font style=&quot;vertical-align: inherit&quot;&gt;Receber Compras&lt;/font&gt;&lt;/font&gt;" style="ellipse;whiteSpace=wrap;html=1;" parent="1" vertex="1">
          <mxGeometry x="1430" y="392.5" width="110" height="47.5" as="geometry" />
        </mxCell>
        <mxCell id="3GYnURnb8D_fZ_eO1M6K-224" style="rounded=0;orthogonalLoop=1;jettySize=auto;html=1;entryX=1;entryY=0;entryDx=0;entryDy=0;dashed=1;startArrow=none;startFill=0;endArrow=none;endFill=0;" parent="1" source="3GYnURnb8D_fZ_eO1M6K-211" target="3GYnURnb8D_fZ_eO1M6K-37" edge="1">
          <mxGeometry relative="1" as="geometry" />
        </mxCell>
        <mxCell id="3GYnURnb8D_fZ_eO1M6K-211" value="&lt;font style=&quot;vertical-align: inherit&quot;&gt;&lt;font style=&quot;vertical-align: inherit&quot;&gt;Receber Vendas&lt;/font&gt;&lt;/font&gt;" style="ellipse;whiteSpace=wrap;html=1;" parent="1" vertex="1">
          <mxGeometry x="1460" y="460" width="110" height="47.5" as="geometry" />
        </mxCell>
        <mxCell id="3GYnURnb8D_fZ_eO1M6K-216" value="&lt;font style=&quot;vertical-align: inherit&quot;&gt;&lt;font style=&quot;vertical-align: inherit&quot;&gt;&lt;font style=&quot;vertical-align: inherit&quot;&gt;&lt;font style=&quot;vertical-align: inherit&quot;&gt;&lt;font style=&quot;vertical-align: inherit&quot;&gt;&lt;font style=&quot;vertical-align: inherit&quot;&gt;&lt;font style=&quot;vertical-align: inherit&quot;&gt;&lt;font style=&quot;vertical-align: inherit&quot;&gt;Armazenar dados no Servidor&amp;nbsp;&lt;/font&gt;&lt;/font&gt;&lt;/font&gt;&lt;/font&gt;&lt;/font&gt;&lt;/font&gt;&lt;/font&gt;&lt;/font&gt;" style="ellipse;whiteSpace=wrap;html=1;" parent="1" vertex="1">
          <mxGeometry x="1160" y="370" width="110" height="50" as="geometry" />
        </mxCell>
        <mxCell id="3GYnURnb8D_fZ_eO1M6K-220" style="edgeStyle=none;rounded=0;orthogonalLoop=1;jettySize=auto;html=1;exitX=0.75;exitY=0.1;exitDx=0;exitDy=0;exitPerimeter=0;dashed=1;startArrow=none;startFill=0;endArrow=none;endFill=0;" parent="1" source="3GYnURnb8D_fZ_eO1M6K-32" target="3GYnURnb8D_fZ_eO1M6K-32" edge="1">
          <mxGeometry relative="1" as="geometry" />
        </mxCell>
        <mxCell id="EJIqz_CYbdoUF1vv5kKt-4" style="edgeStyle=none;rounded=0;orthogonalLoop=1;jettySize=auto;html=1;dashed=1;" edge="1" parent="1" source="3GYnURnb8D_fZ_eO1M6K-225" target="3GYnURnb8D_fZ_eO1M6K-231">
          <mxGeometry relative="1" as="geometry" />
        </mxCell>
        <mxCell id="3GYnURnb8D_fZ_eO1M6K-225" value="&lt;font style=&quot;vertical-align: inherit&quot;&gt;&lt;font style=&quot;vertical-align: inherit&quot;&gt;&lt;font style=&quot;vertical-align: inherit&quot;&gt;&lt;font style=&quot;vertical-align: inherit&quot;&gt;&lt;font style=&quot;vertical-align: inherit&quot;&gt;&lt;font style=&quot;vertical-align: inherit&quot;&gt;&lt;font style=&quot;vertical-align: inherit&quot;&gt;&lt;font style=&quot;vertical-align: inherit&quot;&gt;Cancelar Pedidos&lt;/font&gt;&lt;/font&gt;&lt;/font&gt;&lt;/font&gt;&lt;/font&gt;&lt;/font&gt;&lt;/font&gt;&lt;/font&gt;" style="ellipse;whiteSpace=wrap;html=1;" parent="1" vertex="1">
          <mxGeometry x="1270" y="410" width="110" height="50" as="geometry" />
        </mxCell>
        <mxCell id="3GYnURnb8D_fZ_eO1M6K-227" value="&lt;font style=&quot;vertical-align: inherit&quot;&gt;&lt;font style=&quot;vertical-align: inherit&quot;&gt;&lt;font style=&quot;vertical-align: inherit&quot;&gt;&lt;font style=&quot;vertical-align: inherit&quot;&gt;Cancelar Pedido&lt;/font&gt;&lt;/font&gt;&lt;/font&gt;&lt;/font&gt;" style="ellipse;whiteSpace=wrap;html=1;" parent="1" vertex="1">
          <mxGeometry x="840" y="470" width="110" height="50" as="geometry" />
        </mxCell>
        <mxCell id="3GYnURnb8D_fZ_eO1M6K-247" value="" style="edgeStyle=none;rounded=0;orthogonalLoop=1;jettySize=auto;html=1;dashed=1;startArrow=none;startFill=0;endArrow=open;endFill=0;" parent="1" source="3GYnURnb8D_fZ_eO1M6K-230" target="3GYnURnb8D_fZ_eO1M6K-227" edge="1">
          <mxGeometry relative="1" as="geometry" />
        </mxCell>
        <mxCell id="3GYnURnb8D_fZ_eO1M6K-230" value="&lt;font style=&quot;vertical-align: inherit&quot;&gt;&lt;font style=&quot;vertical-align: inherit&quot;&gt;&lt;font style=&quot;vertical-align: inherit&quot;&gt;&lt;font style=&quot;vertical-align: inherit&quot;&gt;Solicitar Reembolso&lt;/font&gt;&lt;/font&gt;&lt;/font&gt;&lt;/font&gt;" style="ellipse;whiteSpace=wrap;html=1;" parent="1" vertex="1">
          <mxGeometry x="930" y="420" width="110" height="50" as="geometry" />
        </mxCell>
        <mxCell id="EJIqz_CYbdoUF1vv5kKt-2" style="rounded=0;orthogonalLoop=1;jettySize=auto;html=1;dashed=1;" edge="1" parent="1" source="3GYnURnb8D_fZ_eO1M6K-231" target="3GYnURnb8D_fZ_eO1M6K-36">
          <mxGeometry relative="1" as="geometry" />
        </mxCell>
        <mxCell id="3GYnURnb8D_fZ_eO1M6K-231" value="&lt;font style=&quot;vertical-align: inherit&quot;&gt;&lt;font style=&quot;vertical-align: inherit&quot;&gt;&lt;font style=&quot;vertical-align: inherit&quot;&gt;&lt;font style=&quot;vertical-align: inherit&quot;&gt;&lt;font style=&quot;vertical-align: inherit&quot;&gt;&lt;font style=&quot;vertical-align: inherit&quot;&gt;&lt;font style=&quot;vertical-align: inherit&quot;&gt;&lt;font style=&quot;vertical-align: inherit&quot;&gt;&lt;font style=&quot;vertical-align: inherit&quot;&gt;&lt;font style=&quot;vertical-align: inherit&quot;&gt;Realizar reembolso Pedidos Cancelados&lt;/font&gt;&lt;/font&gt;&lt;/font&gt;&lt;/font&gt;&lt;/font&gt;&lt;/font&gt;&lt;/font&gt;&lt;/font&gt;&lt;/font&gt;&lt;/font&gt;" style="ellipse;whiteSpace=wrap;html=1;" parent="1" vertex="1">
          <mxGeometry x="1350" y="325" width="130" height="50" as="geometry" />
        </mxCell>
        <mxCell id="3GYnURnb8D_fZ_eO1M6K-232" value="" style="ellipse;whiteSpace=wrap;html=1;" parent="1" vertex="1">
          <mxGeometry x="2050" y="70" width="110" height="47.5" as="geometry" />
        </mxCell>
        <mxCell id="3GYnURnb8D_fZ_eO1M6K-234" style="edgeStyle=none;rounded=0;orthogonalLoop=1;jettySize=auto;html=1;exitX=0.5;exitY=0;exitDx=0;exitDy=0;exitPerimeter=0;dashed=1;startArrow=none;startFill=0;endArrow=none;endFill=0;" parent="1" source="3GYnURnb8D_fZ_eO1M6K-196" target="3GYnURnb8D_fZ_eO1M6K-196" edge="1">
          <mxGeometry relative="1" as="geometry" />
        </mxCell>
        <mxCell id="3GYnURnb8D_fZ_eO1M6K-244" style="edgeStyle=none;rounded=0;orthogonalLoop=1;jettySize=auto;html=1;dashed=1;startArrow=none;startFill=0;endArrow=open;endFill=0;" parent="1" source="3GYnURnb8D_fZ_eO1M6K-242" target="3GYnURnb8D_fZ_eO1M6K-36" edge="1">
          <mxGeometry relative="1" as="geometry" />
        </mxCell>
        <mxCell id="3GYnURnb8D_fZ_eO1M6K-242" value="&lt;font style=&quot;vertical-align: inherit&quot;&gt;&lt;font style=&quot;vertical-align: inherit&quot;&gt;Gerente financeiro&lt;/font&gt;&lt;/font&gt;" style="shape=umlActor;verticalLabelPosition=bottom;verticalAlign=top;html=1;outlineConnect=0;" parent="1" vertex="1">
          <mxGeometry x="1890" y="390" width="30" height="60" as="geometry" />
        </mxCell>
        <mxCell id="3GYnURnb8D_fZ_eO1M6K-245" style="edgeStyle=none;rounded=0;orthogonalLoop=1;jettySize=auto;html=1;exitX=0.5;exitY=1;exitDx=0;exitDy=0;dashed=1;startArrow=none;startFill=0;endArrow=open;endFill=0;" parent="1" source="3GYnURnb8D_fZ_eO1M6K-53" target="3GYnURnb8D_fZ_eO1M6K-53" edge="1">
          <mxGeometry relative="1" as="geometry" />
        </mxCell>
        <mxCell id="3GYnURnb8D_fZ_eO1M6K-381" value="" style="rounded=0;whiteSpace=wrap;html=1;fillColor=none;" parent="1" vertex="1">
          <mxGeometry x="1290" y="760" width="680" height="635" as="geometry" />
        </mxCell>
        <mxCell id="3GYnURnb8D_fZ_eO1M6K-382" value="&lt;font style=&quot;vertical-align: inherit&quot;&gt;&lt;font style=&quot;vertical-align: inherit&quot;&gt;&lt;font style=&quot;vertical-align: inherit&quot;&gt;&lt;font style=&quot;vertical-align: inherit&quot;&gt;&lt;font style=&quot;vertical-align: inherit&quot;&gt;&lt;font style=&quot;vertical-align: inherit&quot;&gt;&lt;font style=&quot;vertical-align: inherit&quot;&gt;&lt;font style=&quot;vertical-align: inherit&quot;&gt;&lt;font style=&quot;vertical-align: inherit&quot;&gt;&lt;font style=&quot;vertical-align: inherit&quot;&gt;&lt;font style=&quot;vertical-align: inherit&quot;&gt;&lt;font style=&quot;vertical-align: inherit&quot;&gt;Loja física de Supermercado&lt;/font&gt;&lt;/font&gt;&lt;/font&gt;&lt;/font&gt;&lt;/font&gt;&lt;/font&gt;&lt;/font&gt;&lt;/font&gt;&lt;/font&gt;&lt;/font&gt;&lt;/font&gt;&lt;/font&gt;" style="shape=umlFrame;whiteSpace=wrap;html=1;width=330;height=20;strokeColor=#000000;" parent="1" vertex="1">
          <mxGeometry x="184" y="760" width="1066" height="660" as="geometry" />
        </mxCell>
        <mxCell id="3GYnURnb8D_fZ_eO1M6K-383" style="edgeStyle=none;rounded=0;orthogonalLoop=1;jettySize=auto;html=1;entryX=0;entryY=0.495;entryDx=0;entryDy=0;entryPerimeter=0;dashed=1;startArrow=none;startFill=0;endArrow=open;endFill=0;" parent="1" source="3GYnURnb8D_fZ_eO1M6K-382" edge="1">
          <mxGeometry relative="1" as="geometry">
            <mxPoint x="1280" y="1061.45" as="targetPoint" />
          </mxGeometry>
        </mxCell>
        <mxCell id="3GYnURnb8D_fZ_eO1M6K-384" value="include" style="edgeLabel;html=1;align=center;verticalAlign=middle;resizable=0;points=[];" parent="3GYnURnb8D_fZ_eO1M6K-383" vertex="1" connectable="0">
          <mxGeometry x="-0.3426" relative="1" as="geometry">
            <mxPoint as="offset" />
          </mxGeometry>
        </mxCell>
        <mxCell id="3GYnURnb8D_fZ_eO1M6K-385" value="" style="rounded=0;whiteSpace=wrap;html=1;fillColor=none;" parent="1" vertex="1">
          <mxGeometry x="300" y="820" width="930" height="580" as="geometry" />
        </mxCell>
        <mxCell id="3GYnURnb8D_fZ_eO1M6K-386" style="edgeStyle=none;rounded=0;orthogonalLoop=1;jettySize=auto;html=1;exitX=0;exitY=0;exitDx=0;exitDy=0;endArrow=none;endFill=0;" parent="1" edge="1">
          <mxGeometry relative="1" as="geometry">
            <mxPoint x="724.6399999999999" y="1174" as="sourcePoint" />
            <mxPoint x="724.6399999999999" y="1174" as="targetPoint" />
          </mxGeometry>
        </mxCell>
        <mxCell id="3GYnURnb8D_fZ_eO1M6K-387" style="edgeStyle=none;rounded=0;orthogonalLoop=1;jettySize=auto;html=1;endArrow=none;endFill=0;" parent="1" source="3GYnURnb8D_fZ_eO1M6K-388" target="3GYnURnb8D_fZ_eO1M6K-424" edge="1">
          <mxGeometry relative="1" as="geometry" />
        </mxCell>
        <mxCell id="3GYnURnb8D_fZ_eO1M6K-514" style="edgeStyle=none;rounded=0;orthogonalLoop=1;jettySize=auto;html=1;entryX=0.053;entryY=0.212;entryDx=0;entryDy=0;entryPerimeter=0;dashed=1;startArrow=none;startFill=0;endArrow=open;endFill=0;" parent="1" source="3GYnURnb8D_fZ_eO1M6K-399" target="3GYnURnb8D_fZ_eO1M6K-382" edge="1">
          <mxGeometry relative="1" as="geometry" />
        </mxCell>
        <mxCell id="3GYnURnb8D_fZ_eO1M6K-388" value="&lt;font style=&quot;vertical-align: inherit&quot;&gt;&lt;font style=&quot;vertical-align: inherit&quot;&gt;Cliente&lt;/font&gt;&lt;/font&gt;" style="shape=umlActor;verticalLabelPosition=bottom;verticalAlign=top;html=1;" parent="1" vertex="1">
          <mxGeometry x="220" y="840" width="30" height="60" as="geometry" />
        </mxCell>
        <mxCell id="3GYnURnb8D_fZ_eO1M6K-389" style="rounded=0;orthogonalLoop=1;jettySize=auto;html=1;dashed=1;endArrow=none;endFill=0;" parent="1" source="3GYnURnb8D_fZ_eO1M6K-390" target="3GYnURnb8D_fZ_eO1M6K-424" edge="1">
          <mxGeometry relative="1" as="geometry" />
        </mxCell>
        <mxCell id="3GYnURnb8D_fZ_eO1M6K-520" style="edgeStyle=none;rounded=0;orthogonalLoop=1;jettySize=auto;html=1;entryX=0.5;entryY=0;entryDx=0;entryDy=0;dashed=1;startArrow=none;startFill=0;endArrow=open;endFill=0;" parent="1" source="3GYnURnb8D_fZ_eO1M6K-390" target="3GYnURnb8D_fZ_eO1M6K-399" edge="1">
          <mxGeometry relative="1" as="geometry" />
        </mxCell>
        <mxCell id="3GYnURnb8D_fZ_eO1M6K-390" value="Pega Carinho" style="ellipse;whiteSpace=wrap;html=1;" parent="1" vertex="1">
          <mxGeometry x="474" y="840" width="110" height="50" as="geometry" />
        </mxCell>
        <mxCell id="3GYnURnb8D_fZ_eO1M6K-517" style="edgeStyle=none;rounded=0;orthogonalLoop=1;jettySize=auto;html=1;dashed=1;startArrow=none;startFill=0;endArrow=open;endFill=0;" parent="1" source="3GYnURnb8D_fZ_eO1M6K-399" target="3GYnURnb8D_fZ_eO1M6K-419" edge="1">
          <mxGeometry relative="1" as="geometry" />
        </mxCell>
        <mxCell id="3GYnURnb8D_fZ_eO1M6K-399" value="&lt;font style=&quot;vertical-align: inherit&quot;&gt;&lt;font style=&quot;vertical-align: inherit&quot;&gt;&lt;font style=&quot;vertical-align: inherit&quot;&gt;&lt;font style=&quot;vertical-align: inherit&quot;&gt;Visualiza itens por categorias&lt;/font&gt;&lt;/font&gt;&lt;/font&gt;&lt;/font&gt;" style="ellipse;whiteSpace=wrap;html=1;" parent="1" vertex="1">
          <mxGeometry x="400" y="977.5" width="120" height="50" as="geometry" />
        </mxCell>
        <mxCell id="3GYnURnb8D_fZ_eO1M6K-405" style="edgeStyle=orthogonalEdgeStyle;rounded=0;orthogonalLoop=1;jettySize=auto;html=1;dashed=1;startArrow=none;startFill=0;endArrow=open;endFill=0;" parent="1" source="3GYnURnb8D_fZ_eO1M6K-407" target="3GYnURnb8D_fZ_eO1M6K-502" edge="1">
          <mxGeometry relative="1" as="geometry" />
        </mxCell>
        <mxCell id="3GYnURnb8D_fZ_eO1M6K-406" style="edgeStyle=orthogonalEdgeStyle;rounded=0;orthogonalLoop=1;jettySize=auto;html=1;dashed=1;startArrow=none;startFill=0;endArrow=none;endFill=0;" parent="1" source="3GYnURnb8D_fZ_eO1M6K-407" target="3GYnURnb8D_fZ_eO1M6K-505" edge="1">
          <mxGeometry relative="1" as="geometry">
            <Array as="points">
              <mxPoint x="1155" y="1215" />
            </Array>
          </mxGeometry>
        </mxCell>
        <mxCell id="3GYnURnb8D_fZ_eO1M6K-407" value="&lt;font style=&quot;vertical-align: inherit&quot;&gt;&lt;font style=&quot;vertical-align: inherit&quot;&gt;&lt;font style=&quot;vertical-align: inherit&quot;&gt;&lt;font style=&quot;vertical-align: inherit&quot;&gt;Concluir Pedido&lt;/font&gt;&lt;/font&gt;&lt;/font&gt;&lt;/font&gt;" style="ellipse;whiteSpace=wrap;html=1;" parent="1" vertex="1">
          <mxGeometry x="940" y="1270" width="110" height="50" as="geometry" />
        </mxCell>
        <mxCell id="3GYnURnb8D_fZ_eO1M6K-412" style="edgeStyle=none;rounded=0;orthogonalLoop=1;jettySize=auto;html=1;dashed=1;startArrow=none;startFill=0;endArrow=none;endFill=0;" parent="1" source="3GYnURnb8D_fZ_eO1M6K-413" target="3GYnURnb8D_fZ_eO1M6K-502" edge="1">
          <mxGeometry relative="1" as="geometry" />
        </mxCell>
        <mxCell id="3GYnURnb8D_fZ_eO1M6K-413" value="&lt;font style=&quot;vertical-align: inherit&quot;&gt;&lt;font style=&quot;vertical-align: inherit&quot;&gt;&lt;font style=&quot;vertical-align: inherit&quot;&gt;&lt;font style=&quot;vertical-align: inherit&quot;&gt;Armazenar dados&amp;nbsp; do Cliente&lt;/font&gt;&lt;/font&gt;&lt;/font&gt;&lt;/font&gt;" style="ellipse;whiteSpace=wrap;html=1;" parent="1" vertex="1">
          <mxGeometry x="830" y="1000" width="110" height="50" as="geometry" />
        </mxCell>
        <mxCell id="3GYnURnb8D_fZ_eO1M6K-417" style="rounded=0;orthogonalLoop=1;jettySize=auto;html=1;dashed=1;startArrow=none;startFill=0;endArrow=open;endFill=0;" parent="1" source="3GYnURnb8D_fZ_eO1M6K-419" target="3GYnURnb8D_fZ_eO1M6K-487" edge="1">
          <mxGeometry relative="1" as="geometry" />
        </mxCell>
        <mxCell id="3GYnURnb8D_fZ_eO1M6K-418" style="edgeStyle=none;rounded=0;orthogonalLoop=1;jettySize=auto;html=1;dashed=1;startArrow=none;startFill=0;endArrow=open;endFill=0;" parent="1" source="3GYnURnb8D_fZ_eO1M6K-419" target="3GYnURnb8D_fZ_eO1M6K-483" edge="1">
          <mxGeometry relative="1" as="geometry" />
        </mxCell>
        <mxCell id="3GYnURnb8D_fZ_eO1M6K-419" value="&lt;font style=&quot;vertical-align: inherit&quot;&gt;&lt;font style=&quot;vertical-align: inherit&quot;&gt;&lt;font style=&quot;vertical-align: inherit&quot;&gt;&lt;font style=&quot;vertical-align: inherit&quot;&gt;Sair da Loja&lt;/font&gt;&lt;/font&gt;&lt;/font&gt;&lt;/font&gt;" style="ellipse;whiteSpace=wrap;html=1;" parent="1" vertex="1">
          <mxGeometry x="330" y="1247.5" width="110" height="50" as="geometry" />
        </mxCell>
        <mxCell id="3GYnURnb8D_fZ_eO1M6K-420" value="Extends" style="endArrow=block;endSize=16;endFill=0;html=1;dashed=1;entryX=0.364;entryY=1;entryDx=0;entryDy=0;entryPerimeter=0;" parent="1" source="3GYnURnb8D_fZ_eO1M6K-419" target="3GYnURnb8D_fZ_eO1M6K-407" edge="1">
          <mxGeometry width="160" relative="1" as="geometry">
            <mxPoint x="450" y="1080" as="sourcePoint" />
            <mxPoint x="610" y="1080" as="targetPoint" />
          </mxGeometry>
        </mxCell>
        <mxCell id="3GYnURnb8D_fZ_eO1M6K-423" value="Supermercado" style="text;html=1;strokeColor=none;fillColor=none;align=center;verticalAlign=middle;whiteSpace=wrap;rounded=0;" parent="1" vertex="1">
          <mxGeometry x="750" y="820" width="40" height="20" as="geometry" />
        </mxCell>
        <mxCell id="3GYnURnb8D_fZ_eO1M6K-516" style="edgeStyle=none;rounded=0;orthogonalLoop=1;jettySize=auto;html=1;dashed=1;startArrow=none;startFill=0;endArrow=open;endFill=0;" parent="1" source="3GYnURnb8D_fZ_eO1M6K-424" target="3GYnURnb8D_fZ_eO1M6K-419" edge="1">
          <mxGeometry relative="1" as="geometry" />
        </mxCell>
        <mxCell id="3GYnURnb8D_fZ_eO1M6K-424" value="acessa a loja" style="ellipse;whiteSpace=wrap;html=1;" parent="1" vertex="1">
          <mxGeometry x="313" y="880" width="110" height="50" as="geometry" />
        </mxCell>
        <mxCell id="3GYnURnb8D_fZ_eO1M6K-425" style="edgeStyle=none;rounded=0;orthogonalLoop=1;jettySize=auto;html=1;exitX=0;exitY=0;exitDx=0;exitDy=0;endArrow=none;endFill=0;" parent="1" edge="1">
          <mxGeometry relative="1" as="geometry">
            <mxPoint x="1664.6399999999999" y="1124" as="sourcePoint" />
            <mxPoint x="1664.6399999999999" y="1124" as="targetPoint" />
          </mxGeometry>
        </mxCell>
        <mxCell id="3GYnURnb8D_fZ_eO1M6K-426" value="&lt;font style=&quot;vertical-align: inherit&quot;&gt;&lt;font style=&quot;vertical-align: inherit&quot;&gt;Cadastrar Produtos&lt;/font&gt;&lt;/font&gt;" style="ellipse;whiteSpace=wrap;html=1;" parent="1" vertex="1">
          <mxGeometry x="1460" y="857.5" width="110" height="50" as="geometry" />
        </mxCell>
        <mxCell id="3GYnURnb8D_fZ_eO1M6K-427" value="&lt;font style=&quot;vertical-align: inherit&quot;&gt;&lt;font style=&quot;vertical-align: inherit&quot;&gt;&lt;font style=&quot;vertical-align: inherit&quot;&gt;&lt;font style=&quot;vertical-align: inherit&quot;&gt;ERP&lt;/font&gt;&lt;/font&gt;&lt;/font&gt;&lt;/font&gt;" style="text;html=1;strokeColor=none;fillColor=none;align=center;verticalAlign=middle;whiteSpace=wrap;rounded=0;" parent="1" vertex="1">
          <mxGeometry x="1630" y="770" width="40" height="20" as="geometry" />
        </mxCell>
        <mxCell id="3GYnURnb8D_fZ_eO1M6K-428" style="edgeStyle=none;rounded=0;orthogonalLoop=1;jettySize=auto;html=1;entryX=1;entryY=0.5;entryDx=0;entryDy=0;dashed=1;startArrow=none;startFill=0;endArrow=open;endFill=0;" parent="1" source="3GYnURnb8D_fZ_eO1M6K-429" target="3GYnURnb8D_fZ_eO1M6K-441" edge="1">
          <mxGeometry relative="1" as="geometry" />
        </mxCell>
        <mxCell id="3GYnURnb8D_fZ_eO1M6K-429" value="&lt;font style=&quot;vertical-align: inherit&quot;&gt;&lt;font style=&quot;vertical-align: inherit&quot;&gt;Caixa&lt;/font&gt;&lt;/font&gt;" style="shape=umlActor;verticalLabelPosition=bottom;verticalAlign=top;html=1;outlineConnect=0;" parent="1" vertex="1">
          <mxGeometry x="2020" y="760" width="30" height="60" as="geometry" />
        </mxCell>
        <mxCell id="3GYnURnb8D_fZ_eO1M6K-431" style="edgeStyle=none;rounded=0;orthogonalLoop=1;jettySize=auto;html=1;dashed=1;startArrow=none;startFill=0;endArrow=open;endFill=0;" parent="1" source="3GYnURnb8D_fZ_eO1M6K-437" target="3GYnURnb8D_fZ_eO1M6K-454" edge="1">
          <mxGeometry relative="1" as="geometry" />
        </mxCell>
        <mxCell id="3GYnURnb8D_fZ_eO1M6K-432" style="edgeStyle=none;rounded=0;orthogonalLoop=1;jettySize=auto;html=1;dashed=1;startArrow=none;startFill=0;endArrow=open;endFill=0;" parent="1" source="3GYnURnb8D_fZ_eO1M6K-437" target="3GYnURnb8D_fZ_eO1M6K-455" edge="1">
          <mxGeometry relative="1" as="geometry" />
        </mxCell>
        <mxCell id="3GYnURnb8D_fZ_eO1M6K-434" style="edgeStyle=none;rounded=0;orthogonalLoop=1;jettySize=auto;html=1;entryX=1;entryY=0.5;entryDx=0;entryDy=0;dashed=1;startArrow=none;startFill=0;endArrow=open;endFill=0;" parent="1" source="3GYnURnb8D_fZ_eO1M6K-437" target="3GYnURnb8D_fZ_eO1M6K-499" edge="1">
          <mxGeometry relative="1" as="geometry" />
        </mxCell>
        <mxCell id="3GYnURnb8D_fZ_eO1M6K-435" style="edgeStyle=none;rounded=0;orthogonalLoop=1;jettySize=auto;html=1;entryX=1;entryY=0;entryDx=0;entryDy=0;dashed=1;startArrow=none;startFill=0;endArrow=open;endFill=0;" parent="1" source="3GYnURnb8D_fZ_eO1M6K-437" target="3GYnURnb8D_fZ_eO1M6K-501" edge="1">
          <mxGeometry relative="1" as="geometry" />
        </mxCell>
        <mxCell id="3GYnURnb8D_fZ_eO1M6K-436" style="edgeStyle=none;rounded=0;orthogonalLoop=1;jettySize=auto;html=1;dashed=1;startArrow=none;startFill=0;endArrow=none;endFill=0;entryX=0.283;entryY=0.027;entryDx=0;entryDy=0;entryPerimeter=0;" parent="1" source="3GYnURnb8D_fZ_eO1M6K-437" target="3GYnURnb8D_fZ_eO1M6K-496" edge="1">
          <mxGeometry relative="1" as="geometry" />
        </mxCell>
        <mxCell id="EJIqz_CYbdoUF1vv5kKt-228" style="edgeStyle=none;rounded=0;orthogonalLoop=1;jettySize=auto;html=1;" edge="1" parent="1" source="3GYnURnb8D_fZ_eO1M6K-437" target="3GYnURnb8D_fZ_eO1M6K-509">
          <mxGeometry relative="1" as="geometry" />
        </mxCell>
        <mxCell id="3GYnURnb8D_fZ_eO1M6K-437" value="&lt;font style=&quot;vertical-align: inherit&quot;&gt;&lt;font style=&quot;vertical-align: inherit&quot;&gt;Controlar Financeiro&lt;/font&gt;&lt;/font&gt;" style="ellipse;whiteSpace=wrap;html=1;" parent="1" vertex="1">
          <mxGeometry x="1800" y="930" width="110" height="50" as="geometry" />
        </mxCell>
        <mxCell id="3GYnURnb8D_fZ_eO1M6K-438" value="&lt;font style=&quot;vertical-align: inherit&quot;&gt;&lt;font style=&quot;vertical-align: inherit&quot;&gt;&lt;font style=&quot;vertical-align: inherit&quot;&gt;&lt;font style=&quot;vertical-align: inherit&quot;&gt;&lt;font style=&quot;vertical-align: inherit&quot;&gt;&lt;font style=&quot;vertical-align: inherit&quot;&gt;Controlar&amp;nbsp; Estoque&lt;/font&gt;&lt;/font&gt;&lt;/font&gt;&lt;/font&gt;&lt;/font&gt;&lt;/font&gt;" style="ellipse;whiteSpace=wrap;html=1;" parent="1" vertex="1">
          <mxGeometry x="1440" y="1247.5" width="110" height="50" as="geometry" />
        </mxCell>
        <mxCell id="3GYnURnb8D_fZ_eO1M6K-439" style="edgeStyle=none;rounded=0;orthogonalLoop=1;jettySize=auto;html=1;dashed=1;startArrow=openThin;startFill=0;endArrow=none;endFill=0;" parent="1" source="3GYnURnb8D_fZ_eO1M6K-441" target="3GYnURnb8D_fZ_eO1M6K-426" edge="1">
          <mxGeometry relative="1" as="geometry" />
        </mxCell>
        <mxCell id="3GYnURnb8D_fZ_eO1M6K-441" value="&lt;font style=&quot;vertical-align: inherit&quot;&gt;&lt;font style=&quot;vertical-align: inherit&quot;&gt;&lt;font style=&quot;vertical-align: inherit&quot;&gt;&lt;font style=&quot;vertical-align: inherit&quot;&gt;&lt;font style=&quot;vertical-align: inherit&quot;&gt;&lt;font style=&quot;vertical-align: inherit&quot;&gt;&lt;font style=&quot;vertical-align: inherit&quot;&gt;&lt;font style=&quot;vertical-align: inherit&quot;&gt;Controlar Caixa&lt;/font&gt;&lt;/font&gt;&lt;/font&gt;&lt;/font&gt;&lt;/font&gt;&lt;/font&gt;&lt;/font&gt;&lt;/font&gt;" style="ellipse;whiteSpace=wrap;html=1;" parent="1" vertex="1">
          <mxGeometry x="1370" y="807.5" width="110" height="50" as="geometry" />
        </mxCell>
        <mxCell id="3GYnURnb8D_fZ_eO1M6K-443" style="edgeStyle=none;rounded=0;orthogonalLoop=1;jettySize=auto;html=1;dashed=1;startArrow=none;startFill=0;endArrow=none;endFill=0;" parent="1" source="3GYnURnb8D_fZ_eO1M6K-445" target="3GYnURnb8D_fZ_eO1M6K-438" edge="1">
          <mxGeometry relative="1" as="geometry" />
        </mxCell>
        <mxCell id="3GYnURnb8D_fZ_eO1M6K-444" style="rounded=0;orthogonalLoop=1;jettySize=auto;html=1;entryX=0.394;entryY=1.016;entryDx=0;entryDy=0;dashed=1;startArrow=none;startFill=0;endArrow=none;endFill=0;entryPerimeter=0;" parent="1" source="3GYnURnb8D_fZ_eO1M6K-445" target="3GYnURnb8D_fZ_eO1M6K-504" edge="1">
          <mxGeometry relative="1" as="geometry" />
        </mxCell>
        <mxCell id="3GYnURnb8D_fZ_eO1M6K-445" value="&lt;font style=&quot;vertical-align: inherit&quot;&gt;&lt;font style=&quot;vertical-align: inherit&quot;&gt;&lt;font style=&quot;vertical-align: inherit&quot;&gt;&lt;font style=&quot;vertical-align: inherit&quot;&gt;&lt;font style=&quot;vertical-align: inherit&quot;&gt;&lt;font style=&quot;vertical-align: inherit&quot;&gt;&lt;font style=&quot;vertical-align: inherit&quot;&gt;&lt;font style=&quot;vertical-align: inherit&quot;&gt;Entregar Pedidos&lt;/font&gt;&lt;/font&gt;&lt;/font&gt;&lt;/font&gt;&lt;/font&gt;&lt;/font&gt;&lt;/font&gt;&lt;/font&gt;" style="ellipse;whiteSpace=wrap;html=1;" parent="1" vertex="1">
          <mxGeometry x="1330" y="1197.5" width="110" height="50" as="geometry" />
        </mxCell>
        <mxCell id="3GYnURnb8D_fZ_eO1M6K-446" value="" style="edgeStyle=none;rounded=0;orthogonalLoop=1;jettySize=auto;html=1;dashed=1;startArrow=none;startFill=0;endArrow=open;endFill=0;" parent="1" source="3GYnURnb8D_fZ_eO1M6K-447" target="3GYnURnb8D_fZ_eO1M6K-496" edge="1">
          <mxGeometry relative="1" as="geometry" />
        </mxCell>
        <mxCell id="3GYnURnb8D_fZ_eO1M6K-447" value="&lt;font style=&quot;vertical-align: inherit&quot;&gt;&lt;font style=&quot;vertical-align: inherit&quot;&gt;Cadastrar Departamento&lt;/font&gt;&lt;/font&gt;" style="ellipse;whiteSpace=wrap;html=1;" parent="1" vertex="1">
          <mxGeometry x="1590" y="1275" width="110" height="50" as="geometry" />
        </mxCell>
        <mxCell id="3GYnURnb8D_fZ_eO1M6K-448" style="rounded=0;orthogonalLoop=1;jettySize=auto;html=1;dashed=1;startArrow=none;startFill=0;endArrow=none;endFill=0;" parent="1" source="3GYnURnb8D_fZ_eO1M6K-449" target="3GYnURnb8D_fZ_eO1M6K-496" edge="1">
          <mxGeometry relative="1" as="geometry" />
        </mxCell>
        <mxCell id="3GYnURnb8D_fZ_eO1M6K-449" value="&lt;font style=&quot;vertical-align: inherit&quot;&gt;&lt;font style=&quot;vertical-align: inherit&quot;&gt;Cadastrar Funcionário&lt;/font&gt;&lt;/font&gt;" style="ellipse;whiteSpace=wrap;html=1;" parent="1" vertex="1">
          <mxGeometry x="1594" y="1330" width="110" height="50" as="geometry" />
        </mxCell>
        <mxCell id="3GYnURnb8D_fZ_eO1M6K-450" style="edgeStyle=none;rounded=0;orthogonalLoop=1;jettySize=auto;html=1;dashed=1;startArrow=none;startFill=0;endArrow=open;endFill=0;" parent="1" source="3GYnURnb8D_fZ_eO1M6K-451" target="3GYnURnb8D_fZ_eO1M6K-441" edge="1">
          <mxGeometry relative="1" as="geometry" />
        </mxCell>
        <mxCell id="3GYnURnb8D_fZ_eO1M6K-451" value="&lt;font style=&quot;vertical-align: inherit&quot;&gt;&lt;font style=&quot;vertical-align: inherit&quot;&gt;Cadastrar Cliente&lt;/font&gt;&lt;/font&gt;" style="ellipse;whiteSpace=wrap;html=1;" parent="1" vertex="1">
          <mxGeometry x="1480" y="770" width="110" height="50" as="geometry" />
        </mxCell>
        <mxCell id="3GYnURnb8D_fZ_eO1M6K-452" style="edgeStyle=none;rounded=0;orthogonalLoop=1;jettySize=auto;html=1;entryX=0.5;entryY=1;entryDx=0;entryDy=0;dashed=1;startArrow=none;startFill=0;endArrow=none;endFill=0;" parent="1" source="3GYnURnb8D_fZ_eO1M6K-453" target="3GYnURnb8D_fZ_eO1M6K-437" edge="1">
          <mxGeometry relative="1" as="geometry" />
        </mxCell>
        <mxCell id="3GYnURnb8D_fZ_eO1M6K-453" value="&lt;font style=&quot;vertical-align: inherit&quot;&gt;&lt;font style=&quot;vertical-align: inherit&quot;&gt;Cadastrar Fornecedor&lt;/font&gt;&lt;/font&gt;" style="ellipse;whiteSpace=wrap;html=1;" parent="1" vertex="1">
          <mxGeometry x="1810" y="1160" width="110" height="50" as="geometry" />
        </mxCell>
        <mxCell id="3GYnURnb8D_fZ_eO1M6K-454" value="&lt;font style=&quot;vertical-align: inherit&quot;&gt;&lt;font style=&quot;vertical-align: inherit&quot;&gt;Realizar Compras&lt;/font&gt;&lt;/font&gt;" style="ellipse;whiteSpace=wrap;html=1;" parent="1" vertex="1">
          <mxGeometry x="1654" y="892.5" width="110" height="47.5" as="geometry" />
        </mxCell>
        <mxCell id="3GYnURnb8D_fZ_eO1M6K-455" value="&lt;font style=&quot;vertical-align: inherit&quot;&gt;&lt;font style=&quot;vertical-align: inherit&quot;&gt;Realizar Vendas&lt;/font&gt;&lt;/font&gt;" style="ellipse;whiteSpace=wrap;html=1;" parent="1" vertex="1">
          <mxGeometry x="1555" y="930" width="110" height="47.5" as="geometry" />
        </mxCell>
        <mxCell id="3GYnURnb8D_fZ_eO1M6K-523" style="edgeStyle=none;rounded=0;orthogonalLoop=1;jettySize=auto;html=1;dashed=1;startArrow=none;startFill=0;endArrow=open;endFill=0;" parent="1" source="3GYnURnb8D_fZ_eO1M6K-468" target="3GYnURnb8D_fZ_eO1M6K-399" edge="1">
          <mxGeometry relative="1" as="geometry" />
        </mxCell>
        <mxCell id="3GYnURnb8D_fZ_eO1M6K-526" style="edgeStyle=none;rounded=0;orthogonalLoop=1;jettySize=auto;html=1;dashed=1;startArrow=none;startFill=0;endArrow=open;endFill=0;" parent="1" source="3GYnURnb8D_fZ_eO1M6K-468" target="3GYnURnb8D_fZ_eO1M6K-524" edge="1">
          <mxGeometry relative="1" as="geometry" />
        </mxCell>
        <mxCell id="3GYnURnb8D_fZ_eO1M6K-468" value="&lt;font style=&quot;vertical-align: inherit&quot;&gt;&lt;font style=&quot;vertical-align: inherit&quot;&gt;&lt;font style=&quot;vertical-align: inherit&quot;&gt;&lt;font style=&quot;vertical-align: inherit&quot;&gt;&lt;font style=&quot;vertical-align: inherit&quot;&gt;&lt;font style=&quot;vertical-align: inherit&quot;&gt;Adicionar item ao carrinho&lt;/font&gt;&lt;/font&gt;&lt;/font&gt;&lt;/font&gt;&lt;/font&gt;&lt;/font&gt;" style="ellipse;whiteSpace=wrap;html=1;" parent="1" vertex="1">
          <mxGeometry x="520" y="940" width="110" height="50" as="geometry" />
        </mxCell>
        <mxCell id="3GYnURnb8D_fZ_eO1M6K-474" value="&lt;font style=&quot;vertical-align: inherit&quot;&gt;&lt;font style=&quot;vertical-align: inherit&quot;&gt;&lt;font style=&quot;vertical-align: inherit&quot;&gt;&lt;font style=&quot;vertical-align: inherit&quot;&gt;&lt;font style=&quot;vertical-align: inherit&quot;&gt;&lt;font style=&quot;vertical-align: inherit&quot;&gt;&lt;font style=&quot;vertical-align: inherit&quot;&gt;&lt;font style=&quot;vertical-align: inherit&quot;&gt;Avaliar&lt;/font&gt;&lt;/font&gt;&lt;/font&gt;&lt;/font&gt;&lt;/font&gt;&lt;/font&gt;&lt;/font&gt;&lt;/font&gt;" style="ellipse;whiteSpace=wrap;html=1;" parent="1" vertex="1">
          <mxGeometry x="550" y="1320" width="110" height="50" as="geometry" />
        </mxCell>
        <mxCell id="3GYnURnb8D_fZ_eO1M6K-535" style="edgeStyle=none;rounded=0;orthogonalLoop=1;jettySize=auto;html=1;dashed=1;startArrow=none;startFill=0;endArrow=open;endFill=0;" parent="1" source="3GYnURnb8D_fZ_eO1M6K-483" target="3GYnURnb8D_fZ_eO1M6K-407" edge="1">
          <mxGeometry relative="1" as="geometry" />
        </mxCell>
        <mxCell id="3GYnURnb8D_fZ_eO1M6K-483" value="Concluir pagamento" style="ellipse;whiteSpace=wrap;html=1;" parent="1" vertex="1">
          <mxGeometry x="840" y="1190" width="110" height="50" as="geometry" />
        </mxCell>
        <mxCell id="3GYnURnb8D_fZ_eO1M6K-484" style="edgeStyle=orthogonalEdgeStyle;rounded=0;orthogonalLoop=1;jettySize=auto;html=1;exitX=0.5;exitY=1;exitDx=0;exitDy=0;dashed=1;startArrow=none;startFill=0;endArrow=open;endFill=0;" parent="1" edge="1">
          <mxGeometry relative="1" as="geometry">
            <mxPoint x="1085" y="890" as="sourcePoint" />
            <mxPoint x="1085" y="890" as="targetPoint" />
          </mxGeometry>
        </mxCell>
        <mxCell id="3GYnURnb8D_fZ_eO1M6K-485" style="edgeStyle=none;rounded=0;orthogonalLoop=1;jettySize=auto;html=1;dashed=1;startArrow=none;startFill=0;endArrow=open;endFill=0;" parent="1" source="3GYnURnb8D_fZ_eO1M6K-487" target="3GYnURnb8D_fZ_eO1M6K-483" edge="1">
          <mxGeometry relative="1" as="geometry" />
        </mxCell>
        <mxCell id="3GYnURnb8D_fZ_eO1M6K-487" value="&lt;font style=&quot;vertical-align: inherit&quot;&gt;&lt;font style=&quot;vertical-align: inherit&quot;&gt;&lt;font style=&quot;vertical-align: inherit&quot;&gt;&lt;font style=&quot;vertical-align: inherit&quot;&gt;Validar dados Financeiro ERP&lt;/font&gt;&lt;/font&gt;&lt;/font&gt;&lt;/font&gt;" style="ellipse;whiteSpace=wrap;html=1;" parent="1" vertex="1">
          <mxGeometry x="705" y="1137.5" width="110" height="50" as="geometry" />
        </mxCell>
        <mxCell id="3GYnURnb8D_fZ_eO1M6K-490" style="rounded=0;orthogonalLoop=1;jettySize=auto;html=1;dashed=1;startArrow=none;startFill=0;endArrow=open;endFill=0;entryX=0.214;entryY=0.107;entryDx=0;entryDy=0;entryPerimeter=0;" parent="1" source="3GYnURnb8D_fZ_eO1M6K-491" target="3GYnURnb8D_fZ_eO1M6K-487" edge="1">
          <mxGeometry relative="1" as="geometry">
            <mxPoint x="885" y="1150" as="targetPoint" />
          </mxGeometry>
        </mxCell>
        <mxCell id="3GYnURnb8D_fZ_eO1M6K-534" style="edgeStyle=none;rounded=0;orthogonalLoop=1;jettySize=auto;html=1;entryX=0.026;entryY=0.727;entryDx=0;entryDy=0;entryPerimeter=0;dashed=1;startArrow=none;startFill=0;endArrow=open;endFill=0;" parent="1" source="3GYnURnb8D_fZ_eO1M6K-491" target="3GYnURnb8D_fZ_eO1M6K-413" edge="1">
          <mxGeometry relative="1" as="geometry" />
        </mxCell>
        <mxCell id="3GYnURnb8D_fZ_eO1M6K-491" value="&lt;font style=&quot;vertical-align: inherit&quot;&gt;&lt;font style=&quot;vertical-align: inherit&quot;&gt;&lt;font style=&quot;vertical-align: inherit&quot;&gt;&lt;font style=&quot;vertical-align: inherit&quot;&gt;&lt;font style=&quot;vertical-align: inherit&quot;&gt;&lt;font style=&quot;vertical-align: inherit&quot;&gt;Escolher opção pagamento&lt;/font&gt;&lt;/font&gt;&lt;/font&gt;&lt;/font&gt;&lt;/font&gt;&lt;/font&gt;" style="ellipse;whiteSpace=wrap;html=1;" parent="1" vertex="1">
          <mxGeometry x="550" y="1130" width="110" height="50" as="geometry" />
        </mxCell>
        <mxCell id="3GYnURnb8D_fZ_eO1M6K-492" value="&lt;font style=&quot;vertical-align: inherit&quot;&gt;&lt;font style=&quot;vertical-align: inherit&quot;&gt;Gerente de loja&lt;/font&gt;&lt;/font&gt;" style="shape=umlActor;verticalLabelPosition=bottom;verticalAlign=top;html=1;outlineConnect=0;" parent="1" vertex="1">
          <mxGeometry x="2020" y="1010" width="30" height="60" as="geometry" />
        </mxCell>
        <mxCell id="3GYnURnb8D_fZ_eO1M6K-493" style="edgeStyle=none;rounded=0;orthogonalLoop=1;jettySize=auto;html=1;dashed=1;startArrow=none;startFill=0;endArrow=none;endFill=0;" parent="1" source="3GYnURnb8D_fZ_eO1M6K-495" target="3GYnURnb8D_fZ_eO1M6K-438" edge="1">
          <mxGeometry relative="1" as="geometry" />
        </mxCell>
        <mxCell id="3GYnURnb8D_fZ_eO1M6K-494" style="edgeStyle=none;rounded=0;orthogonalLoop=1;jettySize=auto;html=1;dashed=1;startArrow=none;startFill=0;endArrow=none;endFill=0;" parent="1" source="3GYnURnb8D_fZ_eO1M6K-495" target="3GYnURnb8D_fZ_eO1M6K-453" edge="1">
          <mxGeometry relative="1" as="geometry" />
        </mxCell>
        <mxCell id="3GYnURnb8D_fZ_eO1M6K-495" value="&lt;font style=&quot;vertical-align: inherit&quot;&gt;&lt;font style=&quot;vertical-align: inherit&quot;&gt;&lt;font style=&quot;vertical-align: inherit&quot;&gt;&lt;font style=&quot;vertical-align: inherit&quot;&gt;Loja&lt;/font&gt;&lt;/font&gt;&lt;/font&gt;&lt;/font&gt;" style="shape=umlActor;verticalLabelPosition=bottom;verticalAlign=top;html=1;outlineConnect=0;" parent="1" vertex="1">
          <mxGeometry x="2030" y="1187.5" width="30" height="60" as="geometry" />
        </mxCell>
        <mxCell id="3GYnURnb8D_fZ_eO1M6K-496" value="&lt;font style=&quot;vertical-align: inherit&quot;&gt;&lt;font style=&quot;vertical-align: inherit&quot;&gt;Controlar Departamento&lt;/font&gt;&lt;/font&gt;" style="ellipse;whiteSpace=wrap;html=1;" parent="1" vertex="1">
          <mxGeometry x="1720" y="1285" width="110" height="50" as="geometry" />
        </mxCell>
        <mxCell id="3GYnURnb8D_fZ_eO1M6K-498" style="rounded=0;orthogonalLoop=1;jettySize=auto;html=1;dashed=1;startArrow=none;startFill=0;endArrow=none;endFill=0;exitX=0.051;exitY=0.765;exitDx=0;exitDy=0;exitPerimeter=0;" parent="1" source="3GYnURnb8D_fZ_eO1M6K-499" target="3GYnURnb8D_fZ_eO1M6K-438" edge="1">
          <mxGeometry relative="1" as="geometry" />
        </mxCell>
        <mxCell id="3GYnURnb8D_fZ_eO1M6K-499" value="&lt;font style=&quot;vertical-align: inherit&quot;&gt;&lt;font style=&quot;vertical-align: inherit&quot;&gt;Receber Compras&lt;/font&gt;&lt;/font&gt;" style="ellipse;whiteSpace=wrap;html=1;" parent="1" vertex="1">
          <mxGeometry x="1580" y="990" width="110" height="47.5" as="geometry" />
        </mxCell>
        <mxCell id="3GYnURnb8D_fZ_eO1M6K-500" style="rounded=0;orthogonalLoop=1;jettySize=auto;html=1;entryX=1;entryY=0;entryDx=0;entryDy=0;dashed=1;startArrow=none;startFill=0;endArrow=none;endFill=0;" parent="1" source="3GYnURnb8D_fZ_eO1M6K-501" target="3GYnURnb8D_fZ_eO1M6K-438" edge="1">
          <mxGeometry relative="1" as="geometry" />
        </mxCell>
        <mxCell id="3GYnURnb8D_fZ_eO1M6K-501" value="&lt;font style=&quot;vertical-align: inherit&quot;&gt;&lt;font style=&quot;vertical-align: inherit&quot;&gt;Receber Vendas&lt;/font&gt;&lt;/font&gt;" style="ellipse;whiteSpace=wrap;html=1;" parent="1" vertex="1">
          <mxGeometry x="1620" y="1062.5" width="110" height="47.5" as="geometry" />
        </mxCell>
        <mxCell id="3GYnURnb8D_fZ_eO1M6K-502" value="&lt;font style=&quot;vertical-align: inherit&quot;&gt;&lt;font style=&quot;vertical-align: inherit&quot;&gt;&lt;font style=&quot;vertical-align: inherit&quot;&gt;&lt;font style=&quot;vertical-align: inherit&quot;&gt;&lt;font style=&quot;vertical-align: inherit&quot;&gt;&lt;font style=&quot;vertical-align: inherit&quot;&gt;&lt;font style=&quot;vertical-align: inherit&quot;&gt;&lt;font style=&quot;vertical-align: inherit&quot;&gt;Armazenar dados no servidor&amp;nbsp;&lt;/font&gt;&lt;/font&gt;&lt;/font&gt;&lt;/font&gt;&lt;/font&gt;&lt;/font&gt;&lt;/font&gt;&lt;/font&gt;" style="ellipse;whiteSpace=wrap;html=1;" parent="1" vertex="1">
          <mxGeometry x="1110" y="950" width="110" height="50" as="geometry" />
        </mxCell>
        <mxCell id="3GYnURnb8D_fZ_eO1M6K-503" style="edgeStyle=none;rounded=0;orthogonalLoop=1;jettySize=auto;html=1;exitX=0.75;exitY=0.1;exitDx=0;exitDy=0;exitPerimeter=0;dashed=1;startArrow=none;startFill=0;endArrow=none;endFill=0;" parent="1" edge="1">
          <mxGeometry relative="1" as="geometry">
            <mxPoint x="2052.5" y="1336" as="sourcePoint" />
            <mxPoint x="2054.375" y="1330" as="targetPoint" />
          </mxGeometry>
        </mxCell>
        <mxCell id="3GYnURnb8D_fZ_eO1M6K-504" value="&lt;font style=&quot;vertical-align: inherit&quot;&gt;&lt;font style=&quot;vertical-align: inherit&quot;&gt;&lt;font style=&quot;vertical-align: inherit&quot;&gt;&lt;font style=&quot;vertical-align: inherit&quot;&gt;&lt;font style=&quot;vertical-align: inherit&quot;&gt;&lt;font style=&quot;vertical-align: inherit&quot;&gt;&lt;font style=&quot;vertical-align: inherit&quot;&gt;&lt;font style=&quot;vertical-align: inherit&quot;&gt;Cancelar Pedidos&lt;/font&gt;&lt;/font&gt;&lt;/font&gt;&lt;/font&gt;&lt;/font&gt;&lt;/font&gt;&lt;/font&gt;&lt;/font&gt;" style="ellipse;whiteSpace=wrap;html=1;" parent="1" vertex="1">
          <mxGeometry x="1430" y="1000" width="110" height="50" as="geometry" />
        </mxCell>
        <mxCell id="3GYnURnb8D_fZ_eO1M6K-505" value="&lt;font style=&quot;vertical-align: inherit&quot;&gt;&lt;font style=&quot;vertical-align: inherit&quot;&gt;&lt;font style=&quot;vertical-align: inherit&quot;&gt;&lt;font style=&quot;vertical-align: inherit&quot;&gt;Cancelar Compra&lt;/font&gt;&lt;/font&gt;&lt;/font&gt;&lt;/font&gt;" style="ellipse;whiteSpace=wrap;html=1;" parent="1" vertex="1">
          <mxGeometry x="990" y="1070" width="110" height="50" as="geometry" />
        </mxCell>
        <mxCell id="3GYnURnb8D_fZ_eO1M6K-506" value="" style="edgeStyle=none;rounded=0;orthogonalLoop=1;jettySize=auto;html=1;dashed=1;startArrow=none;startFill=0;endArrow=open;endFill=0;" parent="1" source="3GYnURnb8D_fZ_eO1M6K-507" target="3GYnURnb8D_fZ_eO1M6K-505" edge="1">
          <mxGeometry relative="1" as="geometry" />
        </mxCell>
        <mxCell id="3GYnURnb8D_fZ_eO1M6K-507" value="&lt;font style=&quot;vertical-align: inherit&quot;&gt;&lt;font style=&quot;vertical-align: inherit&quot;&gt;&lt;font style=&quot;vertical-align: inherit&quot;&gt;&lt;font style=&quot;vertical-align: inherit&quot;&gt;Solicitar Reembolso&lt;/font&gt;&lt;/font&gt;&lt;/font&gt;&lt;/font&gt;" style="ellipse;whiteSpace=wrap;html=1;" parent="1" vertex="1">
          <mxGeometry x="1020" y="1140" width="110" height="50" as="geometry" />
        </mxCell>
        <mxCell id="3GYnURnb8D_fZ_eO1M6K-508" value="&lt;font style=&quot;vertical-align: inherit&quot;&gt;&lt;font style=&quot;vertical-align: inherit&quot;&gt;&lt;font style=&quot;vertical-align: inherit&quot;&gt;&lt;font style=&quot;vertical-align: inherit&quot;&gt;&lt;font style=&quot;vertical-align: inherit&quot;&gt;&lt;font style=&quot;vertical-align: inherit&quot;&gt;&lt;font style=&quot;vertical-align: inherit&quot;&gt;&lt;font style=&quot;vertical-align: inherit&quot;&gt;Enviar reembolço Pedidos&lt;/font&gt;&lt;/font&gt;&lt;/font&gt;&lt;/font&gt;&lt;/font&gt;&lt;/font&gt;&lt;/font&gt;&lt;/font&gt;" style="ellipse;whiteSpace=wrap;html=1;" parent="1" vertex="1">
          <mxGeometry x="1420" y="930" width="110" height="50" as="geometry" />
        </mxCell>
        <mxCell id="3GYnURnb8D_fZ_eO1M6K-509" value="&lt;font style=&quot;vertical-align: inherit&quot;&gt;&lt;font style=&quot;vertical-align: inherit&quot;&gt;Realizar pagamento&lt;/font&gt;&lt;/font&gt;" style="ellipse;whiteSpace=wrap;html=1;" parent="1" vertex="1">
          <mxGeometry x="1665" y="840" width="110" height="47.5" as="geometry" />
        </mxCell>
        <mxCell id="3GYnURnb8D_fZ_eO1M6K-510" style="edgeStyle=none;rounded=0;orthogonalLoop=1;jettySize=auto;html=1;exitX=0.5;exitY=0;exitDx=0;exitDy=0;exitPerimeter=0;dashed=1;startArrow=none;startFill=0;endArrow=none;endFill=0;" parent="1" source="3GYnURnb8D_fZ_eO1M6K-495" target="3GYnURnb8D_fZ_eO1M6K-495" edge="1">
          <mxGeometry relative="1" as="geometry" />
        </mxCell>
        <mxCell id="3GYnURnb8D_fZ_eO1M6K-511" style="edgeStyle=none;rounded=0;orthogonalLoop=1;jettySize=auto;html=1;dashed=1;startArrow=none;startFill=0;endArrow=open;endFill=0;" parent="1" source="3GYnURnb8D_fZ_eO1M6K-512" target="3GYnURnb8D_fZ_eO1M6K-437" edge="1">
          <mxGeometry relative="1" as="geometry" />
        </mxCell>
        <mxCell id="3GYnURnb8D_fZ_eO1M6K-512" value="&lt;font style=&quot;vertical-align: inherit&quot;&gt;&lt;font style=&quot;vertical-align: inherit&quot;&gt;Gerente financeiro&lt;/font&gt;&lt;/font&gt;" style="shape=umlActor;verticalLabelPosition=bottom;verticalAlign=top;html=1;outlineConnect=0;" parent="1" vertex="1">
          <mxGeometry x="2020" y="867.5" width="30" height="60" as="geometry" />
        </mxCell>
        <mxCell id="3GYnURnb8D_fZ_eO1M6K-513" style="edgeStyle=none;rounded=0;orthogonalLoop=1;jettySize=auto;html=1;exitX=0.5;exitY=1;exitDx=0;exitDy=0;dashed=1;startArrow=none;startFill=0;endArrow=open;endFill=0;" parent="1" source="3GYnURnb8D_fZ_eO1M6K-455" target="3GYnURnb8D_fZ_eO1M6K-455" edge="1">
          <mxGeometry relative="1" as="geometry" />
        </mxCell>
        <mxCell id="3GYnURnb8D_fZ_eO1M6K-522" style="edgeStyle=none;rounded=0;orthogonalLoop=1;jettySize=auto;html=1;dashed=1;startArrow=none;startFill=0;endArrow=open;endFill=0;" parent="1" source="3GYnURnb8D_fZ_eO1M6K-521" target="3GYnURnb8D_fZ_eO1M6K-468" edge="1">
          <mxGeometry relative="1" as="geometry" />
        </mxCell>
        <mxCell id="3GYnURnb8D_fZ_eO1M6K-521" value="&lt;font style=&quot;vertical-align: inherit&quot;&gt;&lt;font style=&quot;vertical-align: inherit&quot;&gt;&lt;font style=&quot;vertical-align: inherit&quot;&gt;&lt;font style=&quot;vertical-align: inherit&quot;&gt;&lt;font style=&quot;vertical-align: inherit&quot;&gt;&lt;font style=&quot;vertical-align: inherit&quot;&gt;Retira item do carrinho&lt;/font&gt;&lt;/font&gt;&lt;/font&gt;&lt;/font&gt;&lt;/font&gt;&lt;/font&gt;" style="ellipse;whiteSpace=wrap;html=1;" parent="1" vertex="1">
          <mxGeometry x="630" y="852.5" width="110" height="60" as="geometry" />
        </mxCell>
        <mxCell id="3GYnURnb8D_fZ_eO1M6K-525" style="edgeStyle=none;rounded=0;orthogonalLoop=1;jettySize=auto;html=1;dashed=1;startArrow=none;startFill=0;endArrow=open;endFill=0;" parent="1" source="3GYnURnb8D_fZ_eO1M6K-524" target="3GYnURnb8D_fZ_eO1M6K-491" edge="1">
          <mxGeometry relative="1" as="geometry" />
        </mxCell>
        <mxCell id="3GYnURnb8D_fZ_eO1M6K-524" value="Ir ao caixa" style="ellipse;whiteSpace=wrap;html=1;" parent="1" vertex="1">
          <mxGeometry x="530" y="1047.5" width="110" height="60" as="geometry" />
        </mxCell>
        <mxCell id="3GYnURnb8D_fZ_eO1M6K-532" style="edgeStyle=none;rounded=0;orthogonalLoop=1;jettySize=auto;html=1;dashed=1;startArrow=none;startFill=0;endArrow=open;endFill=0;" parent="1" source="3GYnURnb8D_fZ_eO1M6K-527" target="3GYnURnb8D_fZ_eO1M6K-524" edge="1">
          <mxGeometry relative="1" as="geometry" />
        </mxCell>
        <mxCell id="3GYnURnb8D_fZ_eO1M6K-533" style="edgeStyle=none;rounded=0;orthogonalLoop=1;jettySize=auto;html=1;dashed=1;startArrow=none;startFill=0;endArrow=open;endFill=0;" parent="1" source="3GYnURnb8D_fZ_eO1M6K-527" target="3GYnURnb8D_fZ_eO1M6K-413" edge="1">
          <mxGeometry relative="1" as="geometry" />
        </mxCell>
        <mxCell id="3GYnURnb8D_fZ_eO1M6K-527" value="Cadastar CPF" style="ellipse;whiteSpace=wrap;html=1;" parent="1" vertex="1">
          <mxGeometry x="630" y="977.5" width="110" height="60" as="geometry" />
        </mxCell>
        <mxCell id="3GYnURnb8D_fZ_eO1M6K-531" style="edgeStyle=none;rounded=0;orthogonalLoop=1;jettySize=auto;html=1;dashed=1;startArrow=none;startFill=0;endArrow=open;endFill=0;" parent="1" source="3GYnURnb8D_fZ_eO1M6K-530" target="3GYnURnb8D_fZ_eO1M6K-527" edge="1">
          <mxGeometry relative="1" as="geometry" />
        </mxCell>
        <mxCell id="3GYnURnb8D_fZ_eO1M6K-530" value="Não cadastrar CPF" style="ellipse;whiteSpace=wrap;html=1;" parent="1" vertex="1">
          <mxGeometry x="730" y="917.5" width="110" height="60" as="geometry" />
        </mxCell>
        <mxCell id="EJIqz_CYbdoUF1vv5kKt-144" style="rounded=0;orthogonalLoop=1;jettySize=auto;html=1;entryX=1;entryY=0;entryDx=0;entryDy=0;" edge="1" parent="1" source="EJIqz_CYbdoUF1vv5kKt-1" target="3GYnURnb8D_fZ_eO1M6K-40">
          <mxGeometry relative="1" as="geometry" />
        </mxCell>
        <mxCell id="EJIqz_CYbdoUF1vv5kKt-1" value="&lt;font style=&quot;vertical-align: inherit&quot;&gt;&lt;font style=&quot;vertical-align: inherit&quot;&gt;&lt;font style=&quot;vertical-align: inherit&quot;&gt;&lt;font style=&quot;vertical-align: inherit&quot;&gt;Controlar Administrativo&lt;/font&gt;&lt;/font&gt;&lt;/font&gt;&lt;/font&gt;" style="ellipse;whiteSpace=wrap;html=1;" vertex="1" parent="1">
          <mxGeometry x="1620" y="105" width="110" height="50" as="geometry" />
        </mxCell>
        <mxCell id="EJIqz_CYbdoUF1vv5kKt-19" style="edgeStyle=none;rounded=0;orthogonalLoop=1;jettySize=auto;html=1;entryX=0.036;entryY=0.349;entryDx=0;entryDy=0;entryPerimeter=0;dashed=1;" edge="1" parent="1" source="EJIqz_CYbdoUF1vv5kKt-5" target="3GYnURnb8D_fZ_eO1M6K-211">
          <mxGeometry relative="1" as="geometry" />
        </mxCell>
        <mxCell id="EJIqz_CYbdoUF1vv5kKt-5" value="&lt;font style=&quot;vertical-align: inherit&quot;&gt;&lt;font style=&quot;vertical-align: inherit&quot;&gt;Enviar cupom Fiscal&lt;/font&gt;&lt;/font&gt;" style="ellipse;whiteSpace=wrap;html=1;" vertex="1" parent="1">
          <mxGeometry x="1150" y="227.5" width="110" height="50" as="geometry" />
        </mxCell>
        <mxCell id="EJIqz_CYbdoUF1vv5kKt-7" value="&lt;font style=&quot;vertical-align: inherit&quot;&gt;&lt;font style=&quot;vertical-align: inherit&quot;&gt;&lt;font style=&quot;vertical-align: inherit&quot;&gt;&lt;font style=&quot;vertical-align: inherit&quot;&gt;Solicitar Cupom Fiscal&lt;/font&gt;&lt;/font&gt;&lt;/font&gt;&lt;/font&gt;" style="ellipse;whiteSpace=wrap;html=1;" vertex="1" parent="1">
          <mxGeometry x="950" y="490" width="110" height="50" as="geometry" />
        </mxCell>
        <mxCell id="EJIqz_CYbdoUF1vv5kKt-29" style="edgeStyle=none;rounded=0;orthogonalLoop=1;jettySize=auto;html=1;endArrow=none;endFill=0;" edge="1" source="EJIqz_CYbdoUF1vv5kKt-31" target="EJIqz_CYbdoUF1vv5kKt-46" parent="1">
          <mxGeometry relative="1" as="geometry" />
        </mxCell>
        <mxCell id="EJIqz_CYbdoUF1vv5kKt-31" value="&lt;font style=&quot;vertical-align: inherit&quot;&gt;&lt;font style=&quot;vertical-align: inherit&quot;&gt;Cliente&lt;/font&gt;&lt;/font&gt;" style="shape=umlActor;verticalLabelPosition=bottom;verticalAlign=top;html=1;" vertex="1" parent="1">
          <mxGeometry x="220" y="1610" width="30" height="60" as="geometry" />
        </mxCell>
        <mxCell id="EJIqz_CYbdoUF1vv5kKt-37" style="edgeStyle=orthogonalEdgeStyle;rounded=0;orthogonalLoop=1;jettySize=auto;html=1;dashed=1;startArrow=none;startFill=0;endArrow=none;endFill=0;" edge="1" target="EJIqz_CYbdoUF1vv5kKt-59" parent="1">
          <mxGeometry relative="1" as="geometry">
            <Array as="points">
              <mxPoint x="1155" y="1985" />
            </Array>
            <mxPoint x="995" y="2040" as="sourcePoint" />
          </mxGeometry>
        </mxCell>
        <mxCell id="EJIqz_CYbdoUF1vv5kKt-44" value="Sistema de Estoque ERP" style="text;html=1;strokeColor=none;fillColor=none;align=center;verticalAlign=middle;whiteSpace=wrap;rounded=0;" vertex="1" parent="1">
          <mxGeometry x="730" y="1560" width="160" height="20" as="geometry" />
        </mxCell>
        <mxCell id="EJIqz_CYbdoUF1vv5kKt-46" value="acessa a loja" style="ellipse;whiteSpace=wrap;html=1;" vertex="1" parent="1">
          <mxGeometry x="313" y="1650" width="110" height="50" as="geometry" />
        </mxCell>
        <mxCell id="EJIqz_CYbdoUF1vv5kKt-87" style="edgeStyle=none;rounded=0;orthogonalLoop=1;jettySize=auto;html=1;entryX=0.982;entryY=0.643;entryDx=0;entryDy=0;entryPerimeter=0;" edge="1" parent="1" source="EJIqz_CYbdoUF1vv5kKt-73" target="EJIqz_CYbdoUF1vv5kKt-76">
          <mxGeometry relative="1" as="geometry" />
        </mxCell>
        <mxCell id="EJIqz_CYbdoUF1vv5kKt-88" style="edgeStyle=none;rounded=0;orthogonalLoop=1;jettySize=auto;html=1;entryX=1.019;entryY=0.643;entryDx=0;entryDy=0;entryPerimeter=0;" edge="1" parent="1" source="EJIqz_CYbdoUF1vv5kKt-73" target="EJIqz_CYbdoUF1vv5kKt-84">
          <mxGeometry relative="1" as="geometry" />
        </mxCell>
        <mxCell id="EJIqz_CYbdoUF1vv5kKt-89" style="edgeStyle=none;rounded=0;orthogonalLoop=1;jettySize=auto;html=1;entryX=1;entryY=0.5;entryDx=0;entryDy=0;" edge="1" parent="1" source="EJIqz_CYbdoUF1vv5kKt-73" target="EJIqz_CYbdoUF1vv5kKt-86">
          <mxGeometry relative="1" as="geometry" />
        </mxCell>
        <mxCell id="EJIqz_CYbdoUF1vv5kKt-90" style="edgeStyle=none;rounded=0;orthogonalLoop=1;jettySize=auto;html=1;" edge="1" parent="1" source="EJIqz_CYbdoUF1vv5kKt-73" target="EJIqz_CYbdoUF1vv5kKt-77">
          <mxGeometry relative="1" as="geometry" />
        </mxCell>
        <mxCell id="EJIqz_CYbdoUF1vv5kKt-91" style="edgeStyle=none;rounded=0;orthogonalLoop=1;jettySize=auto;html=1;" edge="1" parent="1" source="EJIqz_CYbdoUF1vv5kKt-73" target="EJIqz_CYbdoUF1vv5kKt-75">
          <mxGeometry relative="1" as="geometry" />
        </mxCell>
        <mxCell id="EJIqz_CYbdoUF1vv5kKt-92" style="edgeStyle=none;rounded=0;orthogonalLoop=1;jettySize=auto;html=1;entryX=1;entryY=0.5;entryDx=0;entryDy=0;" edge="1" parent="1" source="EJIqz_CYbdoUF1vv5kKt-73" target="EJIqz_CYbdoUF1vv5kKt-85">
          <mxGeometry relative="1" as="geometry" />
        </mxCell>
        <mxCell id="EJIqz_CYbdoUF1vv5kKt-93" style="edgeStyle=none;rounded=0;orthogonalLoop=1;jettySize=auto;html=1;" edge="1" parent="1" source="EJIqz_CYbdoUF1vv5kKt-73" target="EJIqz_CYbdoUF1vv5kKt-79">
          <mxGeometry relative="1" as="geometry" />
        </mxCell>
        <mxCell id="EJIqz_CYbdoUF1vv5kKt-94" style="edgeStyle=none;rounded=0;orthogonalLoop=1;jettySize=auto;html=1;" edge="1" parent="1" source="EJIqz_CYbdoUF1vv5kKt-73" target="EJIqz_CYbdoUF1vv5kKt-78">
          <mxGeometry relative="1" as="geometry">
            <mxPoint x="980" y="2070" as="targetPoint" />
          </mxGeometry>
        </mxCell>
        <mxCell id="EJIqz_CYbdoUF1vv5kKt-95" style="edgeStyle=none;rounded=0;orthogonalLoop=1;jettySize=auto;html=1;entryX=1;entryY=0.5;entryDx=0;entryDy=0;" edge="1" parent="1" source="EJIqz_CYbdoUF1vv5kKt-73" target="EJIqz_CYbdoUF1vv5kKt-82">
          <mxGeometry relative="1" as="geometry" />
        </mxCell>
        <mxCell id="EJIqz_CYbdoUF1vv5kKt-96" style="edgeStyle=none;rounded=0;orthogonalLoop=1;jettySize=auto;html=1;entryX=1;entryY=0.5;entryDx=0;entryDy=0;" edge="1" parent="1" source="EJIqz_CYbdoUF1vv5kKt-73" target="EJIqz_CYbdoUF1vv5kKt-81">
          <mxGeometry relative="1" as="geometry" />
        </mxCell>
        <mxCell id="EJIqz_CYbdoUF1vv5kKt-104" style="edgeStyle=none;rounded=0;orthogonalLoop=1;jettySize=auto;html=1;entryX=1;entryY=0.5;entryDx=0;entryDy=0;" edge="1" parent="1" source="EJIqz_CYbdoUF1vv5kKt-73" target="EJIqz_CYbdoUF1vv5kKt-101">
          <mxGeometry relative="1" as="geometry" />
        </mxCell>
        <mxCell id="EJIqz_CYbdoUF1vv5kKt-73" value="Estoque" style="shape=umlActor;verticalLabelPosition=bottom;verticalAlign=top;html=1;outlineConnect=0;" vertex="1" parent="1">
          <mxGeometry x="1420" y="1790" width="30" height="60" as="geometry" />
        </mxCell>
        <mxCell id="EJIqz_CYbdoUF1vv5kKt-75" value="Cadastrar produtos" style="ellipse;whiteSpace=wrap;html=1;" vertex="1" parent="1">
          <mxGeometry x="975" y="1900" width="150" height="50" as="geometry" />
        </mxCell>
        <mxCell id="EJIqz_CYbdoUF1vv5kKt-76" value="Importar Compras" style="ellipse;whiteSpace=wrap;html=1;" vertex="1" parent="1">
          <mxGeometry x="1050" y="1650" width="150" height="50" as="geometry" />
        </mxCell>
        <mxCell id="EJIqz_CYbdoUF1vv5kKt-77" value="Controlar nota Fiscal" style="ellipse;whiteSpace=wrap;html=1;" vertex="1" parent="1">
          <mxGeometry x="1200" y="1590" width="150" height="50" as="geometry" />
        </mxCell>
        <mxCell id="EJIqz_CYbdoUF1vv5kKt-78" value="Realizar baixa de&lt;br&gt;&amp;nbsp;Produtos" style="ellipse;whiteSpace=wrap;html=1;" vertex="1" parent="1">
          <mxGeometry x="1030" y="1970" width="150" height="50" as="geometry" />
        </mxCell>
        <mxCell id="EJIqz_CYbdoUF1vv5kKt-79" value="Categorizar produtos" style="ellipse;whiteSpace=wrap;html=1;" vertex="1" parent="1">
          <mxGeometry x="930" y="1840" width="150" height="50" as="geometry" />
        </mxCell>
        <mxCell id="EJIqz_CYbdoUF1vv5kKt-81" value="Controlar de Perdas" style="ellipse;whiteSpace=wrap;html=1;" vertex="1" parent="1">
          <mxGeometry x="1050" y="2100" width="150" height="50" as="geometry" />
        </mxCell>
        <mxCell id="EJIqz_CYbdoUF1vv5kKt-82" value="Gerar listas de produtos" style="ellipse;whiteSpace=wrap;html=1;" vertex="1" parent="1">
          <mxGeometry x="850" y="1780" width="150" height="50" as="geometry" />
        </mxCell>
        <mxCell id="EJIqz_CYbdoUF1vv5kKt-84" value="Exportar Vendas/ Compras&amp;nbsp;&lt;br&gt;para Filiais" style="ellipse;whiteSpace=wrap;html=1;" vertex="1" parent="1">
          <mxGeometry x="890" y="1670" width="160" height="50" as="geometry" />
        </mxCell>
        <mxCell id="EJIqz_CYbdoUF1vv5kKt-85" value="Realizar Troca produtos" style="ellipse;whiteSpace=wrap;html=1;" vertex="1" parent="1">
          <mxGeometry x="1030" y="2040" width="150" height="50" as="geometry" />
        </mxCell>
        <mxCell id="EJIqz_CYbdoUF1vv5kKt-86" value="Manter Estoque" style="ellipse;whiteSpace=wrap;html=1;" vertex="1" parent="1">
          <mxGeometry x="940" y="1730" width="150" height="50" as="geometry" />
        </mxCell>
        <mxCell id="EJIqz_CYbdoUF1vv5kKt-101" value="Importar Vendas filiais" style="ellipse;whiteSpace=wrap;html=1;" vertex="1" parent="1">
          <mxGeometry x="1020" y="1590" width="150" height="50" as="geometry" />
        </mxCell>
        <mxCell id="EJIqz_CYbdoUF1vv5kKt-102" value="Administrar Usuários" style="ellipse;whiteSpace=wrap;html=1;" vertex="1" parent="1">
          <mxGeometry x="1150" y="2400" width="150" height="50" as="geometry" />
        </mxCell>
        <mxCell id="EJIqz_CYbdoUF1vv5kKt-103" value="Sincronizar dados Loja Virtual" style="ellipse;whiteSpace=wrap;html=1;" vertex="1" parent="1">
          <mxGeometry x="770" y="2660" width="150" height="50" as="geometry" />
        </mxCell>
        <mxCell id="EJIqz_CYbdoUF1vv5kKt-105" value="Controlar PDV no ERP" style="ellipse;whiteSpace=wrap;html=1;" vertex="1" parent="1">
          <mxGeometry x="1040" y="2670" width="150" height="50" as="geometry" />
        </mxCell>
        <mxCell id="EJIqz_CYbdoUF1vv5kKt-115" style="edgeStyle=none;rounded=0;orthogonalLoop=1;jettySize=auto;html=1;" edge="1" parent="1" source="EJIqz_CYbdoUF1vv5kKt-106" target="EJIqz_CYbdoUF1vv5kKt-102">
          <mxGeometry relative="1" as="geometry" />
        </mxCell>
        <mxCell id="EJIqz_CYbdoUF1vv5kKt-106" value="Controlar dados gerenciais" style="ellipse;whiteSpace=wrap;html=1;" vertex="1" parent="1">
          <mxGeometry x="1140" y="2290" width="150" height="50" as="geometry" />
        </mxCell>
        <mxCell id="EJIqz_CYbdoUF1vv5kKt-116" style="edgeStyle=none;rounded=0;orthogonalLoop=1;jettySize=auto;html=1;" edge="1" parent="1" source="EJIqz_CYbdoUF1vv5kKt-107" target="EJIqz_CYbdoUF1vv5kKt-102">
          <mxGeometry relative="1" as="geometry" />
        </mxCell>
        <mxCell id="EJIqz_CYbdoUF1vv5kKt-197" style="edgeStyle=none;rounded=0;orthogonalLoop=1;jettySize=auto;html=1;" edge="1" parent="1" source="EJIqz_CYbdoUF1vv5kKt-107" target="EJIqz_CYbdoUF1vv5kKt-194">
          <mxGeometry relative="1" as="geometry" />
        </mxCell>
        <mxCell id="EJIqz_CYbdoUF1vv5kKt-198" style="edgeStyle=none;rounded=0;orthogonalLoop=1;jettySize=auto;html=1;" edge="1" parent="1" source="EJIqz_CYbdoUF1vv5kKt-107" target="EJIqz_CYbdoUF1vv5kKt-195">
          <mxGeometry relative="1" as="geometry" />
        </mxCell>
        <mxCell id="EJIqz_CYbdoUF1vv5kKt-199" style="edgeStyle=none;rounded=0;orthogonalLoop=1;jettySize=auto;html=1;entryX=1;entryY=0.5;entryDx=0;entryDy=0;" edge="1" parent="1" source="EJIqz_CYbdoUF1vv5kKt-107" target="EJIqz_CYbdoUF1vv5kKt-196">
          <mxGeometry relative="1" as="geometry" />
        </mxCell>
        <mxCell id="EJIqz_CYbdoUF1vv5kKt-107" value="Controlar dados&amp;nbsp;operador" style="ellipse;whiteSpace=wrap;html=1;" vertex="1" parent="1">
          <mxGeometry x="970" y="2340" width="150" height="50" as="geometry" />
        </mxCell>
        <mxCell id="EJIqz_CYbdoUF1vv5kKt-117" style="edgeStyle=none;rounded=0;orthogonalLoop=1;jettySize=auto;html=1;entryX=0;entryY=1;entryDx=0;entryDy=0;exitX=1;exitY=0.5;exitDx=0;exitDy=0;" edge="1" parent="1" source="EJIqz_CYbdoUF1vv5kKt-108" target="EJIqz_CYbdoUF1vv5kKt-102">
          <mxGeometry relative="1" as="geometry" />
        </mxCell>
        <mxCell id="EJIqz_CYbdoUF1vv5kKt-108" value="Controlar dados&amp;nbsp;funcionário" style="ellipse;whiteSpace=wrap;html=1;" vertex="1" parent="1">
          <mxGeometry x="950" y="2440" width="150" height="50" as="geometry" />
        </mxCell>
        <mxCell id="EJIqz_CYbdoUF1vv5kKt-109" value="Manter Matriz" style="ellipse;whiteSpace=wrap;html=1;" vertex="1" parent="1">
          <mxGeometry x="770" y="2520" width="150" height="50" as="geometry" />
        </mxCell>
        <mxCell id="EJIqz_CYbdoUF1vv5kKt-110" value="Manter Filial" style="ellipse;whiteSpace=wrap;html=1;" vertex="1" parent="1">
          <mxGeometry x="770" y="2590" width="150" height="50" as="geometry" />
        </mxCell>
        <mxCell id="EJIqz_CYbdoUF1vv5kKt-121" style="edgeStyle=none;rounded=0;orthogonalLoop=1;jettySize=auto;html=1;entryX=1;entryY=0.5;entryDx=0;entryDy=0;" edge="1" parent="1" source="EJIqz_CYbdoUF1vv5kKt-112" target="EJIqz_CYbdoUF1vv5kKt-103">
          <mxGeometry relative="1" as="geometry" />
        </mxCell>
        <mxCell id="EJIqz_CYbdoUF1vv5kKt-122" style="edgeStyle=none;rounded=0;orthogonalLoop=1;jettySize=auto;html=1;entryX=1;entryY=0.5;entryDx=0;entryDy=0;" edge="1" parent="1" source="EJIqz_CYbdoUF1vv5kKt-112" target="EJIqz_CYbdoUF1vv5kKt-110">
          <mxGeometry relative="1" as="geometry" />
        </mxCell>
        <mxCell id="EJIqz_CYbdoUF1vv5kKt-123" style="edgeStyle=none;rounded=0;orthogonalLoop=1;jettySize=auto;html=1;entryX=1;entryY=0.5;entryDx=0;entryDy=0;" edge="1" parent="1" source="EJIqz_CYbdoUF1vv5kKt-112" target="EJIqz_CYbdoUF1vv5kKt-109">
          <mxGeometry relative="1" as="geometry" />
        </mxCell>
        <mxCell id="EJIqz_CYbdoUF1vv5kKt-112" value="Administrar Loja" style="ellipse;whiteSpace=wrap;html=1;" vertex="1" parent="1">
          <mxGeometry x="1040" y="2500" width="150" height="50" as="geometry" />
        </mxCell>
        <mxCell id="EJIqz_CYbdoUF1vv5kKt-113" value="Administrar Pedidos" style="ellipse;whiteSpace=wrap;html=1;" vertex="1" parent="1">
          <mxGeometry x="1040" y="2590" width="150" height="50" as="geometry" />
        </mxCell>
        <mxCell id="EJIqz_CYbdoUF1vv5kKt-127" style="edgeStyle=none;rounded=0;orthogonalLoop=1;jettySize=auto;html=1;entryX=1;entryY=0.5;entryDx=0;entryDy=0;" edge="1" parent="1" source="EJIqz_CYbdoUF1vv5kKt-126" target="EJIqz_CYbdoUF1vv5kKt-102">
          <mxGeometry relative="1" as="geometry" />
        </mxCell>
        <mxCell id="EJIqz_CYbdoUF1vv5kKt-128" style="edgeStyle=none;rounded=0;orthogonalLoop=1;jettySize=auto;html=1;" edge="1" parent="1" source="EJIqz_CYbdoUF1vv5kKt-126" target="EJIqz_CYbdoUF1vv5kKt-112">
          <mxGeometry relative="1" as="geometry" />
        </mxCell>
        <mxCell id="EJIqz_CYbdoUF1vv5kKt-129" style="edgeStyle=none;rounded=0;orthogonalLoop=1;jettySize=auto;html=1;entryX=1;entryY=0.5;entryDx=0;entryDy=0;" edge="1" parent="1" source="EJIqz_CYbdoUF1vv5kKt-126" target="EJIqz_CYbdoUF1vv5kKt-113">
          <mxGeometry relative="1" as="geometry" />
        </mxCell>
        <mxCell id="EJIqz_CYbdoUF1vv5kKt-130" style="edgeStyle=none;rounded=0;orthogonalLoop=1;jettySize=auto;html=1;entryX=1;entryY=0.5;entryDx=0;entryDy=0;" edge="1" parent="1" source="EJIqz_CYbdoUF1vv5kKt-126" target="EJIqz_CYbdoUF1vv5kKt-105">
          <mxGeometry relative="1" as="geometry" />
        </mxCell>
        <mxCell id="EJIqz_CYbdoUF1vv5kKt-126" value="Gerente Loja" style="shape=umlActor;verticalLabelPosition=bottom;verticalAlign=top;html=1;" vertex="1" parent="1">
          <mxGeometry x="1490" y="2510" width="30" height="60" as="geometry" />
        </mxCell>
        <mxCell id="EJIqz_CYbdoUF1vv5kKt-134" value="Modulo Administrador ERP" style="text;html=1;strokeColor=none;fillColor=none;align=center;verticalAlign=middle;whiteSpace=wrap;rounded=0;" vertex="1" parent="1">
          <mxGeometry x="730" y="2260" width="160" height="20" as="geometry" />
        </mxCell>
        <mxCell id="EJIqz_CYbdoUF1vv5kKt-171" value="" style="rounded=0;whiteSpace=wrap;html=1;fillColor=none;" vertex="1" parent="1">
          <mxGeometry x="730" y="2910" width="660" height="520" as="geometry" />
        </mxCell>
        <mxCell id="EJIqz_CYbdoUF1vv5kKt-174" value="Armazenar dados no ERP" style="ellipse;whiteSpace=wrap;html=1;" vertex="1" parent="1">
          <mxGeometry x="1220" y="3330" width="150" height="50" as="geometry" />
        </mxCell>
        <mxCell id="EJIqz_CYbdoUF1vv5kKt-187" value="Acompanhar / Validar Pedidos" style="ellipse;whiteSpace=wrap;html=1;" vertex="1" parent="1">
          <mxGeometry x="1220" y="2950" width="150" height="50" as="geometry" />
        </mxCell>
        <mxCell id="EJIqz_CYbdoUF1vv5kKt-193" value="Modulo financeiro ERP" style="text;html=1;strokeColor=none;fillColor=none;align=center;verticalAlign=middle;whiteSpace=wrap;rounded=0;" vertex="1" parent="1">
          <mxGeometry x="730" y="2870" width="160" height="20" as="geometry" />
        </mxCell>
        <mxCell id="EJIqz_CYbdoUF1vv5kKt-194" value="Controlar dados usuario Caixa" style="ellipse;whiteSpace=wrap;html=1;" vertex="1" parent="1">
          <mxGeometry x="735" y="2290" width="150" height="50" as="geometry" />
        </mxCell>
        <mxCell id="EJIqz_CYbdoUF1vv5kKt-195" value="Controlar dados usuario Financeiro" style="ellipse;whiteSpace=wrap;html=1;" vertex="1" parent="1">
          <mxGeometry x="730" y="2350" width="150" height="50" as="geometry" />
        </mxCell>
        <mxCell id="EJIqz_CYbdoUF1vv5kKt-196" value="Controlar dados usuário&lt;br&gt;&amp;nbsp; de Estoque&amp;nbsp;" style="ellipse;whiteSpace=wrap;html=1;" vertex="1" parent="1">
          <mxGeometry x="730" y="2410" width="160" height="50" as="geometry" />
        </mxCell>
        <mxCell id="EJIqz_CYbdoUF1vv5kKt-230" style="edgeStyle=none;rounded=0;orthogonalLoop=1;jettySize=auto;html=1;dashed=1;startArrow=none;startFill=0;endArrow=open;endFill=0;" edge="1" parent="1" source="EJIqz_CYbdoUF1vv5kKt-235" target="EJIqz_CYbdoUF1vv5kKt-236">
          <mxGeometry relative="1" as="geometry" />
        </mxCell>
        <mxCell id="EJIqz_CYbdoUF1vv5kKt-231" style="edgeStyle=none;rounded=0;orthogonalLoop=1;jettySize=auto;html=1;dashed=1;startArrow=none;startFill=0;endArrow=open;endFill=0;entryX=1;entryY=0;entryDx=0;entryDy=0;" edge="1" parent="1" source="EJIqz_CYbdoUF1vv5kKt-235" target="EJIqz_CYbdoUF1vv5kKt-237">
          <mxGeometry relative="1" as="geometry" />
        </mxCell>
        <mxCell id="EJIqz_CYbdoUF1vv5kKt-232" style="edgeStyle=none;rounded=0;orthogonalLoop=1;jettySize=auto;html=1;entryX=1;entryY=0.5;entryDx=0;entryDy=0;dashed=1;startArrow=none;startFill=0;endArrow=open;endFill=0;" edge="1" parent="1" source="EJIqz_CYbdoUF1vv5kKt-235" target="EJIqz_CYbdoUF1vv5kKt-238">
          <mxGeometry relative="1" as="geometry" />
        </mxCell>
        <mxCell id="EJIqz_CYbdoUF1vv5kKt-233" style="edgeStyle=none;rounded=0;orthogonalLoop=1;jettySize=auto;html=1;entryX=1;entryY=0;entryDx=0;entryDy=0;dashed=1;startArrow=none;startFill=0;endArrow=open;endFill=0;" edge="1" parent="1" source="EJIqz_CYbdoUF1vv5kKt-235" target="EJIqz_CYbdoUF1vv5kKt-239">
          <mxGeometry relative="1" as="geometry" />
        </mxCell>
        <mxCell id="EJIqz_CYbdoUF1vv5kKt-245" style="edgeStyle=none;rounded=0;orthogonalLoop=1;jettySize=auto;html=1;" edge="1" parent="1" source="EJIqz_CYbdoUF1vv5kKt-235" target="EJIqz_CYbdoUF1vv5kKt-187">
          <mxGeometry relative="1" as="geometry" />
        </mxCell>
        <mxCell id="EJIqz_CYbdoUF1vv5kKt-246" style="edgeStyle=none;rounded=0;orthogonalLoop=1;jettySize=auto;html=1;entryX=0.5;entryY=0;entryDx=0;entryDy=0;" edge="1" parent="1" source="EJIqz_CYbdoUF1vv5kKt-235" target="EJIqz_CYbdoUF1vv5kKt-174">
          <mxGeometry relative="1" as="geometry" />
        </mxCell>
        <mxCell id="EJIqz_CYbdoUF1vv5kKt-253" style="edgeStyle=none;rounded=0;orthogonalLoop=1;jettySize=auto;html=1;entryX=1;entryY=0.5;entryDx=0;entryDy=0;" edge="1" parent="1" source="EJIqz_CYbdoUF1vv5kKt-235" target="EJIqz_CYbdoUF1vv5kKt-252">
          <mxGeometry relative="1" as="geometry" />
        </mxCell>
        <mxCell id="EJIqz_CYbdoUF1vv5kKt-235" value="&lt;font style=&quot;vertical-align: inherit&quot;&gt;&lt;font style=&quot;vertical-align: inherit&quot;&gt;Controlar Financeiro&lt;/font&gt;&lt;/font&gt;" style="ellipse;whiteSpace=wrap;html=1;" vertex="1" parent="1">
          <mxGeometry x="1240" y="3137.5" width="110" height="50" as="geometry" />
        </mxCell>
        <mxCell id="EJIqz_CYbdoUF1vv5kKt-236" value="&lt;font style=&quot;vertical-align: inherit&quot;&gt;&lt;font style=&quot;vertical-align: inherit&quot;&gt;Realizar Compras&lt;/font&gt;&lt;/font&gt;" style="ellipse;whiteSpace=wrap;html=1;" vertex="1" parent="1">
          <mxGeometry x="990" y="3200" width="140" height="37.5" as="geometry" />
        </mxCell>
        <mxCell id="EJIqz_CYbdoUF1vv5kKt-237" value="&lt;font style=&quot;vertical-align: inherit&quot;&gt;&lt;font style=&quot;vertical-align: inherit&quot;&gt;Realizar Vendas&lt;/font&gt;&lt;/font&gt;" style="ellipse;whiteSpace=wrap;html=1;" vertex="1" parent="1">
          <mxGeometry x="1005" y="3310" width="135" height="35" as="geometry" />
        </mxCell>
        <mxCell id="EJIqz_CYbdoUF1vv5kKt-238" value="&lt;font style=&quot;vertical-align: inherit&quot;&gt;&lt;font style=&quot;vertical-align: inherit&quot;&gt;Receber Compras&lt;/font&gt;&lt;/font&gt;" style="ellipse;whiteSpace=wrap;html=1;" vertex="1" parent="1">
          <mxGeometry x="995" y="3255" width="130" height="37.5" as="geometry" />
        </mxCell>
        <mxCell id="EJIqz_CYbdoUF1vv5kKt-239" value="&lt;font style=&quot;vertical-align: inherit&quot;&gt;&lt;font style=&quot;vertical-align: inherit&quot;&gt;Receber Vendas&lt;/font&gt;&lt;/font&gt;" style="ellipse;whiteSpace=wrap;html=1;" vertex="1" parent="1">
          <mxGeometry x="1030" y="3360" width="130" height="42.5" as="geometry" />
        </mxCell>
        <mxCell id="EJIqz_CYbdoUF1vv5kKt-241" value="&lt;font style=&quot;vertical-align: inherit&quot;&gt;&lt;font style=&quot;vertical-align: inherit&quot;&gt;Controlar contas a Pagar&lt;/font&gt;&lt;/font&gt;" style="ellipse;whiteSpace=wrap;html=1;" vertex="1" parent="1">
          <mxGeometry x="900" y="2990" width="130" height="47.5" as="geometry" />
        </mxCell>
        <mxCell id="EJIqz_CYbdoUF1vv5kKt-257" style="edgeStyle=none;rounded=0;orthogonalLoop=1;jettySize=auto;html=1;" edge="1" parent="1" source="EJIqz_CYbdoUF1vv5kKt-243" target="EJIqz_CYbdoUF1vv5kKt-235">
          <mxGeometry relative="1" as="geometry" />
        </mxCell>
        <mxCell id="EJIqz_CYbdoUF1vv5kKt-243" value="&lt;font style=&quot;vertical-align: inherit&quot;&gt;&lt;font style=&quot;vertical-align: inherit&quot;&gt;Gerente financeiro&lt;/font&gt;&lt;/font&gt;" style="shape=umlActor;verticalLabelPosition=bottom;verticalAlign=top;html=1;outlineConnect=0;" vertex="1" parent="1">
          <mxGeometry x="1470" y="3060.5" width="30" height="60" as="geometry" />
        </mxCell>
        <mxCell id="EJIqz_CYbdoUF1vv5kKt-250" value="&lt;font style=&quot;vertical-align: inherit&quot;&gt;&lt;font style=&quot;vertical-align: inherit&quot;&gt;Controlar Fluxo de caixa&lt;/font&gt;&lt;/font&gt;" style="ellipse;whiteSpace=wrap;html=1;" vertex="1" parent="1">
          <mxGeometry x="910" y="3107.5" width="130" height="47.5" as="geometry" />
        </mxCell>
        <mxCell id="EJIqz_CYbdoUF1vv5kKt-251" value="&lt;font style=&quot;vertical-align: inherit&quot;&gt;&lt;font style=&quot;vertical-align: inherit&quot;&gt;Controlar contas a Receber&amp;nbsp;&lt;/font&gt;&lt;/font&gt;" style="ellipse;whiteSpace=wrap;html=1;" vertex="1" parent="1">
          <mxGeometry x="905" y="3050" width="130" height="47.5" as="geometry" />
        </mxCell>
        <mxCell id="EJIqz_CYbdoUF1vv5kKt-258" style="edgeStyle=none;rounded=0;orthogonalLoop=1;jettySize=auto;html=1;entryX=0.938;entryY=0.742;entryDx=0;entryDy=0;entryPerimeter=0;" edge="1" parent="1" source="EJIqz_CYbdoUF1vv5kKt-252" target="EJIqz_CYbdoUF1vv5kKt-241">
          <mxGeometry relative="1" as="geometry" />
        </mxCell>
        <mxCell id="EJIqz_CYbdoUF1vv5kKt-259" style="edgeStyle=none;rounded=0;orthogonalLoop=1;jettySize=auto;html=1;" edge="1" parent="1" source="EJIqz_CYbdoUF1vv5kKt-252" target="EJIqz_CYbdoUF1vv5kKt-251">
          <mxGeometry relative="1" as="geometry" />
        </mxCell>
        <mxCell id="EJIqz_CYbdoUF1vv5kKt-260" style="edgeStyle=none;rounded=0;orthogonalLoop=1;jettySize=auto;html=1;entryX=0.923;entryY=0.5;entryDx=0;entryDy=0;entryPerimeter=0;" edge="1" parent="1" source="EJIqz_CYbdoUF1vv5kKt-252" target="EJIqz_CYbdoUF1vv5kKt-250">
          <mxGeometry relative="1" as="geometry" />
        </mxCell>
        <mxCell id="EJIqz_CYbdoUF1vv5kKt-252" value="&lt;font style=&quot;vertical-align: inherit&quot;&gt;&lt;font style=&quot;vertical-align: inherit&quot;&gt;Controlar contas / Filial Matriz&lt;/font&gt;&lt;/font&gt;" style="ellipse;whiteSpace=wrap;html=1;" vertex="1" parent="1">
          <mxGeometry x="1080" y="3030" width="130" height="47.5" as="geometry" />
        </mxCell>
        <mxCell id="EJIqz_CYbdoUF1vv5kKt-263" style="edgeStyle=none;rounded=0;orthogonalLoop=1;jettySize=auto;html=1;entryX=0;entryY=0.5;entryDx=0;entryDy=0;dashed=1;" edge="1" parent="1" source="EJIqz_CYbdoUF1vv5kKt-261" target="EJIqz_CYbdoUF1vv5kKt-241">
          <mxGeometry relative="1" as="geometry" />
        </mxCell>
        <mxCell id="EJIqz_CYbdoUF1vv5kKt-265" style="edgeStyle=none;rounded=0;orthogonalLoop=1;jettySize=auto;html=1;entryX=0.044;entryY=0.791;entryDx=0;entryDy=0;entryPerimeter=0;dashed=1;endArrow=none;endFill=0;" edge="1" parent="1" source="EJIqz_CYbdoUF1vv5kKt-261" target="EJIqz_CYbdoUF1vv5kKt-251">
          <mxGeometry relative="1" as="geometry" />
        </mxCell>
        <mxCell id="EJIqz_CYbdoUF1vv5kKt-266" style="edgeStyle=none;rounded=0;orthogonalLoop=1;jettySize=auto;html=1;dashed=1;endArrow=none;endFill=0;" edge="1" parent="1" source="EJIqz_CYbdoUF1vv5kKt-261" target="EJIqz_CYbdoUF1vv5kKt-250">
          <mxGeometry relative="1" as="geometry" />
        </mxCell>
        <mxCell id="EJIqz_CYbdoUF1vv5kKt-267" style="edgeStyle=none;rounded=0;orthogonalLoop=1;jettySize=auto;html=1;dashed=1;endArrow=none;endFill=0;" edge="1" parent="1" source="EJIqz_CYbdoUF1vv5kKt-261" target="EJIqz_CYbdoUF1vv5kKt-236">
          <mxGeometry relative="1" as="geometry" />
        </mxCell>
        <mxCell id="EJIqz_CYbdoUF1vv5kKt-268" style="edgeStyle=none;rounded=0;orthogonalLoop=1;jettySize=auto;html=1;entryX=0;entryY=0.5;entryDx=0;entryDy=0;dashed=1;endArrow=none;endFill=0;" edge="1" parent="1" source="EJIqz_CYbdoUF1vv5kKt-261" target="EJIqz_CYbdoUF1vv5kKt-238">
          <mxGeometry relative="1" as="geometry" />
        </mxCell>
        <mxCell id="EJIqz_CYbdoUF1vv5kKt-269" style="edgeStyle=none;rounded=0;orthogonalLoop=1;jettySize=auto;html=1;entryX=0;entryY=0.5;entryDx=0;entryDy=0;dashed=1;endArrow=none;endFill=0;" edge="1" parent="1" source="EJIqz_CYbdoUF1vv5kKt-261" target="EJIqz_CYbdoUF1vv5kKt-237">
          <mxGeometry relative="1" as="geometry" />
        </mxCell>
        <mxCell id="EJIqz_CYbdoUF1vv5kKt-270" style="edgeStyle=none;rounded=0;orthogonalLoop=1;jettySize=auto;html=1;entryX=0;entryY=0.5;entryDx=0;entryDy=0;dashed=1;endArrow=none;endFill=0;" edge="1" parent="1" source="EJIqz_CYbdoUF1vv5kKt-261" target="EJIqz_CYbdoUF1vv5kKt-239">
          <mxGeometry relative="1" as="geometry" />
        </mxCell>
        <mxCell id="EJIqz_CYbdoUF1vv5kKt-261" value="Impressão de recibos e promissórias" style="ellipse;whiteSpace=wrap;html=1;" vertex="1" parent="1">
          <mxGeometry x="755" y="3187.5" width="130" height="50" as="geometry" />
        </mxCell>
      </root>
    </mxGraphModel>
  </diagram>
</mxfile>
